<svg width="14" height="15" viewBox="0 0 14 15" fill="none" xmlns="http://www.w3.org/2000/svg">
<path fill-rule="evenodd" clip-rule="evenodd" d="M5.84975 0.705872C5.84975 0.5678 5.73783 0.455872 5.59975 0.455872C5.46168 0.455872 5.34975 0.5678 5.34975 0.705872V2.10293H0.25C0.111929 2.10293 0 2.21486 0 2.35293C0 2.491 0.111929 2.60293 0.25 2.60293H5.34975V3.58822C5.34975 3.7263 5.46168 3.83822 5.59975 3.83822C5.73783 3.83822 5.84975 3.7263 5.84975 3.58822V2.35484L5.84976 2.35293L5.84975 2.35102V0.705872ZM7.13301 2.35293C7.13301 2.21486 7.24494 2.10293 7.38301 2.10293L12.9875 2.10293C13.1256 2.10293 13.2375 2.21486 13.2375 2.35293C13.2375 2.491 13.1256 2.60293 12.9875 2.60293L7.38301 2.60293C7.24494 2.60293 7.13301 2.491 7.13301 2.35293ZM0 13.0588C0 12.9207 0.111929 12.8088 0.25 12.8088H5.34975V11.4118C5.34975 11.2737 5.46168 11.1618 5.59975 11.1618C5.73783 11.1618 5.84975 11.2737 5.84975 11.4118V13.0569L5.84976 13.0588L5.84975 13.0607V14.2941C5.84975 14.4322 5.73783 14.5441 5.59975 14.5441C5.46168 14.5441 5.34975 14.4322 5.34975 14.2941V13.3088H0.25C0.111929 13.3088 0 13.1969 0 13.0588ZM7.63776 12.8088C7.49969 12.8088 7.38776 12.9207 7.38776 13.0588C7.38776 13.1969 7.49969 13.3088 7.63776 13.3088H12.9875C13.1256 13.3088 13.2375 13.1969 13.2375 13.0588C13.2375 12.9207 13.1256 12.8088 12.9875 12.8088H7.63776ZM0.25 7.86764C0.111929 7.86764 0 7.97957 0 8.11764C0 8.25571 0.111929 8.36764 0.25 8.36764H7.13301V9.35293C7.13301 9.491 7.24494 9.60293 7.38301 9.60293C7.52108 9.60293 7.63301 9.491 7.63301 9.35293V8.11927C7.63302 8.11873 7.63302 8.11818 7.63302 8.11764C7.63302 8.11709 7.63302 8.11654 7.63301 8.116V6.47058C7.63301 6.33251 7.52108 6.22058 7.38301 6.22058C7.24494 6.22058 7.13301 6.33251 7.13301 6.47058V7.86764H0.25ZM8.66152 8.11764C8.66152 7.97957 8.77345 7.86764 8.91152 7.86764H12.9875C13.1256 7.86764 13.2375 7.97957 13.2375 8.11764C13.2375 8.25571 13.1256 8.36764 12.9875 8.36764H8.91152C8.77345 8.36764 8.66152 8.25571 8.66152 8.11764Z" fill="#856FC2"/>
</svg>
