<svg width="28" height="28" viewBox="0 0 28 28" fill="none" xmlns="http://www.w3.org/2000/svg">
<path d="M15.1702 9.04653C15.1702 8.81446 15.2624 8.5919 15.4265 8.42781C15.5906 8.26371 15.8131 8.17153 16.0452 8.17153H22.1492C22.3221 8.17168 22.4912 8.22308 22.6349 8.31923C22.7787 8.41539 22.8907 8.55199 22.9569 8.71178C23.023 8.87157 23.0403 9.04739 23.0066 9.21702C22.9729 9.38665 22.8897 9.54249 22.7675 9.66486L19.5289 12.9047C20.1705 13.0179 20.762 13.1999 21.2695 13.4682C22.3254 14.0247 23.0242 14.9662 23.0242 16.2892C23.0242 17.4162 22.4747 18.3309 21.6568 18.9375C20.8554 19.5337 19.8054 19.8359 18.7157 19.8359C17.1209 19.8359 16.0627 19.2199 15.6042 18.9539C15.4035 18.8371 15.2575 18.6453 15.1982 18.4208C15.1389 18.1964 15.1712 17.9575 15.288 17.7569C15.4048 17.5562 15.5966 17.4102 15.821 17.3509C16.0455 17.2916 16.2844 17.3239 16.485 17.4407C16.8712 17.6659 17.5969 18.0859 18.7157 18.0859C19.5009 18.0859 20.1659 17.8665 20.6139 17.534C21.0455 17.2132 21.2742 16.7932 21.2742 16.2892C21.2742 15.7059 21.0187 15.3139 20.454 15.0164C19.8264 14.685 18.8499 14.4995 17.5712 14.4995C17.3982 14.4994 17.2292 14.448 17.0855 14.3518C16.9417 14.2557 16.8297 14.1191 16.7635 13.9593C16.6974 13.7995 16.68 13.6237 16.7137 13.454C16.7474 13.2844 16.8306 13.1286 16.9529 13.0062L20.0364 9.92153H16.0452C15.8131 9.92153 15.5906 9.82934 15.4265 9.66524C15.2624 9.50115 15.1702 9.27859 15.1702 9.04653ZM9.19335 17.751C8.8455 17.7102 8.49374 17.7823 8.18999 17.9567C7.88623 18.131 7.64656 18.3984 7.50635 18.7194C7.40887 18.9264 7.23414 19.0871 7.01961 19.1668C6.80509 19.2466 6.56786 19.2391 6.35878 19.146C6.14969 19.0529 5.98541 18.8816 5.90115 18.6688C5.81689 18.456 5.81935 18.2187 5.90802 18.0077C6.19951 17.3467 6.69497 16.7964 7.32185 16.4374C7.94873 16.0784 8.67408 15.9296 9.39169 16.0127C10.0789 16.0827 10.7205 16.3895 11.2082 16.8795C11.7145 17.3999 12.0074 18.1139 12.0074 18.9539C12.0074 20.8684 10.5444 21.797 9.53402 22.4375C8.90635 22.8354 8.15735 23.2472 7.78985 23.9227H11.375C11.6071 23.9227 11.8296 24.0149 11.9937 24.179C12.1578 24.3431 12.25 24.5656 12.25 24.7977C12.25 25.0298 12.1578 25.2523 11.9937 25.4164C11.8296 25.5805 11.6071 25.6727 11.375 25.6727H6.70835C6.47629 25.6727 6.25373 25.5805 6.08963 25.4164C5.92554 25.2523 5.83335 25.0298 5.83335 24.7977C5.83335 22.6989 7.39319 21.7294 8.45019 21.0527C9.65418 20.2839 10.2585 19.8499 10.2585 18.9527C10.2585 18.5385 10.1232 18.2714 9.95518 18.0987C9.74909 17.8989 9.47932 17.7761 9.19335 17.751ZM9.46635 2.44319C9.60287 2.51897 9.71663 2.62991 9.79582 2.76449C9.87501 2.89906 9.91674 3.05238 9.91669 3.20852V10.5002H11.3774C11.6094 10.5002 11.832 10.5924 11.9961 10.7565C12.1602 10.9206 12.2524 11.1431 12.2524 11.3752C12.2524 11.6073 12.1602 11.8298 11.9961 11.9939C11.832 12.158 11.6094 12.2502 11.3774 12.2502H6.70835C6.47629 12.2502 6.25373 12.158 6.08963 11.9939C5.92554 11.8298 5.83335 11.6073 5.83335 11.3752C5.83335 11.1431 5.92554 10.9206 6.08963 10.7565C6.25373 10.5924 6.47629 10.5002 6.70835 10.5002H8.16668V4.78702L7.17152 5.40886C6.97473 5.53185 6.73714 5.57163 6.51102 5.51945C6.28489 5.46727 6.08876 5.3274 5.96577 5.13061C5.84277 4.93382 5.80299 4.69623 5.85517 4.47011C5.90736 4.24398 6.04723 4.04785 6.24402 3.92486L8.57735 2.46652C8.70988 2.38342 8.86229 2.33741 9.01866 2.33331C9.17504 2.3292 9.32965 2.36715 9.46635 2.44319Z" fill="#000"/>
</svg>
