<svg width="28" height="28" viewBox="0 0 28 28" fill="none" xmlns="http://www.w3.org/2000/svg">
<g clip-path="url(#clip0_350_4843)">
<path d="M7.00008 11.667C5.71675 11.667 4.66675 12.717 4.66675 14.0003C4.66675 15.2837 5.71675 16.3337 7.00008 16.3337C8.28341 16.3337 9.33341 15.2837 9.33341 14.0003C9.33341 12.717 8.28341 11.667 7.00008 11.667ZM21.0001 11.667C19.7167 11.667 18.6667 12.717 18.6667 14.0003C18.6667 15.2837 19.7167 16.3337 21.0001 16.3337C22.2834 16.3337 23.3334 15.2837 23.3334 14.0003C23.3334 12.717 22.2834 11.667 21.0001 11.667ZM14.0001 11.667C12.7167 11.667 11.6667 12.717 11.6667 14.0003C11.6667 15.2837 12.7167 16.3337 14.0001 16.3337C15.2834 16.3337 16.3334 15.2837 16.3334 14.0003C16.3334 12.717 15.2834 11.667 14.0001 11.667Z" fill="#000"/>
</g>
<defs>
<clipPath id="clip0_350_4843">
<rect width="28" height="28" fill="white"/>
</clipPath>
</defs>
</svg>
