<svg width="28" height="28" viewBox="0 0 28 28" fill="none" xmlns="http://www.w3.org/2000/svg">
<path d="M8.75 22.75C9.14193 22.75 9.48372 22.791 9.77539 22.873C10.0671 22.9551 10.3405 23.0736 10.5957 23.2285C10.8509 23.3835 11.0924 23.5703 11.3203 23.7891C11.5482 24.0078 11.7943 24.2448 12.0586 24.5H0V3.5H1.75V22.75H8.75ZM8.75 1.75C9.36068 1.75 9.96224 1.82292 10.5547 1.96875C11.1471 2.11458 11.7122 2.34245 12.25 2.65234V22.2715C11.7578 21.8613 11.2109 21.5469 10.6094 21.3281C10.0078 21.1094 9.38802 21 8.75 21H3.5V1.75H8.75ZM26.25 3.5V24.5H14.1914C14.4466 24.2448 14.6882 24.0078 14.916 23.7891C15.1439 23.5703 15.3854 23.388 15.6406 23.2422C15.8958 23.0964 16.1693 22.9779 16.4609 22.8867C16.7526 22.7956 17.099 22.75 17.5 22.75H24.5V3.5H26.25ZM17.5 21C16.862 21 16.2422 21.1094 15.6406 21.3281C15.0391 21.5469 14.4922 21.8613 14 22.2715V2.65234C14.5378 2.35156 15.1029 2.12826 15.6953 1.98242C16.2878 1.83659 16.8893 1.75911 17.5 1.75H22.75V21H17.5Z" fill="#000"/>
</svg>
