<svg width="28" height="28" viewBox="0 0 28 28" fill="none" xmlns="http://www.w3.org/2000/svg">
<path d="M4.66675 16.5962H5.97925L6.65008 14.6712H9.68341L10.3834 16.5962H11.6667L8.83758 9.07116H7.49591L4.66675 16.5962ZM7.02925 13.592L8.13758 10.4712H8.19591L9.30425 13.592H7.02925ZM16.3334 11.5503V9.56699C16.9751 9.29477 17.6315 9.0906 18.3027 8.95449C18.974 8.81838 19.6786 8.75033 20.4167 8.75033C20.9223 8.75033 21.4181 8.78921 21.9042 8.86699C22.3904 8.94477 22.8667 9.04199 23.3334 9.15866V11.0253C22.8667 10.8503 22.395 10.7193 21.9182 10.6322C21.4415 10.545 20.941 10.5011 20.4167 10.5003C19.6779 10.5003 18.9681 10.5929 18.2876 10.778C17.607 10.9631 16.9556 11.2205 16.3334 11.5503ZM16.3334 17.967V15.9837C16.9751 15.7114 17.6315 15.5073 18.3027 15.3712C18.974 15.235 19.6786 15.167 20.4167 15.167C20.9223 15.167 21.4181 15.2059 21.9042 15.2837C22.3904 15.3614 22.8667 15.4587 23.3334 15.5753V17.442C22.8667 17.267 22.395 17.1359 21.9182 17.0488C21.4415 16.9617 20.941 16.9178 20.4167 16.917C19.6779 16.917 18.9681 17.0045 18.2876 17.1795C17.607 17.3545 16.9556 17.617 16.3334 17.967ZM16.3334 14.7587V12.7753C16.9751 12.5031 17.6315 12.2989 18.3027 12.1628C18.974 12.0267 19.6786 11.9587 20.4167 11.9587C20.9223 11.9587 21.4181 11.9975 21.9042 12.0753C22.3904 12.1531 22.8667 12.2503 23.3334 12.367V14.2337C22.8667 14.0587 22.395 13.9276 21.9182 13.8405C21.4415 13.7534 20.941 13.7094 20.4167 13.7087C19.6779 13.7087 18.9681 13.8012 18.2876 13.9863C17.607 14.1714 16.9556 14.4289 16.3334 14.7587ZM7.58341 18.667C8.4973 18.667 9.38708 18.7693 10.2527 18.9738C11.1184 19.1784 11.9786 19.4844 12.8334 19.892V8.40033C12.0362 7.93366 11.1904 7.58366 10.2959 7.35033C9.40147 7.11699 8.4973 7.00033 7.58341 7.00033C6.88341 7.00033 6.18808 7.06838 5.49741 7.20449C4.80675 7.3406 4.14097 7.54477 3.50008 7.81699V19.367C4.18064 19.1337 4.85653 18.9587 5.52775 18.842C6.19897 18.7253 6.88419 18.667 7.58341 18.667ZM15.1667 19.892C16.0223 19.4837 16.8825 19.1772 17.7474 18.9727C18.6123 18.7681 19.5021 18.6662 20.4167 18.667C21.1167 18.667 21.8024 18.7253 22.4736 18.842C23.1448 18.9587 23.8203 19.1337 24.5001 19.367V7.81699C23.8584 7.54477 23.1922 7.3406 22.5016 7.20449C21.8109 7.06838 21.116 7.00033 20.4167 7.00033C19.5029 7.00033 18.5987 7.11699 17.7042 7.35033C16.8098 7.58366 15.964 7.93366 15.1667 8.40033V19.892ZM14.0001 23.3337C13.0667 22.5948 12.0556 22.0212 10.9667 21.6128C9.87786 21.2045 8.75008 21.0003 7.58341 21.0003C6.76675 21.0003 5.96447 21.1073 5.17658 21.3212C4.38869 21.535 3.63541 21.8364 2.91675 22.2253C2.50841 22.4392 2.11486 22.4295 1.73608 22.1962C1.3573 21.9628 1.16753 21.6225 1.16675 21.1753V7.11699C1.16675 6.9031 1.22041 6.69894 1.32775 6.50449C1.43508 6.31005 1.5953 6.16421 1.80841 6.06699C2.70286 5.60033 3.63619 5.25033 4.60841 5.01699C5.58064 4.78366 6.5723 4.66699 7.58341 4.66699C8.71119 4.66699 9.81486 4.81283 10.8944 5.10449C11.974 5.39616 13.0092 5.83366 14.0001 6.41699C14.9917 5.83366 16.0274 5.39616 17.1069 5.10449C18.1865 4.81283 19.2897 4.66699 20.4167 4.66699C21.4279 4.66699 22.4195 4.78366 23.3917 5.01699C24.364 5.25033 25.2973 5.60033 26.1917 6.06699C26.4056 6.16421 26.5662 6.31005 26.6736 6.50449C26.7809 6.69894 26.8342 6.9031 26.8334 7.11699V21.1753C26.8334 21.6225 26.644 21.9628 26.2652 22.1962C25.8865 22.4295 25.4925 22.4392 25.0834 22.2253C24.364 21.8364 23.6107 21.535 22.8236 21.3212C22.0365 21.1073 21.2342 21.0003 20.4167 21.0003C19.2501 21.0003 18.1223 21.2045 17.0334 21.6128C15.9445 22.0212 14.9334 22.5948 14.0001 23.3337Z" fill="#000"/>
</svg>
