<svg width="28" height="28" viewBox="0 0 28 28" fill="none" xmlns="http://www.w3.org/2000/svg">
<path d="M13.3001 21.1882L21.9288 12.5595C20.477 11.9534 19.1586 11.0678 18.0484 9.95316C16.9333 8.84274 16.0473 7.52389 15.4409 6.07166L6.81227 14.7003C6.1391 15.3735 5.80194 15.7107 5.5126 16.0817C5.1709 16.5195 4.87789 16.9932 4.63877 17.4945C4.43694 17.9192 4.28644 18.3718 3.98544 19.2748L2.39644 24.0383C2.3233 24.2564 2.31245 24.4906 2.3651 24.7145C2.41776 24.9385 2.53182 25.1433 2.69449 25.3059C2.85715 25.4686 3.06196 25.5827 3.28589 25.6353C3.50982 25.688 3.744 25.6771 3.9621 25.604L8.7256 24.015C9.62977 23.714 10.0813 23.5635 10.5059 23.3617C11.0076 23.1225 11.4813 22.8297 11.9188 22.4878C12.2898 22.1985 12.6269 21.8613 13.3001 21.1882ZM24.3228 10.1655C25.1831 9.30515 25.6664 8.13828 25.6664 6.92158C25.6664 5.70487 25.1831 4.538 24.3228 3.67766C23.4624 2.81732 22.2956 2.33398 21.0789 2.33398C19.8621 2.33398 18.6953 2.81732 17.8349 3.67766L16.8001 4.71249L16.8444 4.84199C17.3544 6.30116 18.1889 7.62554 19.2851 8.71533C20.4075 9.84431 21.7782 10.6953 23.2879 11.2003L24.3228 10.1655Z" fill="#000"/>
</svg>
