<svg width="69" height="66" viewBox="0 0 69 66" fill="none" xmlns="http://www.w3.org/2000/svg">
<path fill-rule="evenodd" clip-rule="evenodd" d="M24.0451 0.0175781C22.4099 0.0175781 21.063 1.19347 20.886 2.70581H16.5034C14.6211 2.70581 13.0952 4.2317 13.0952 6.11397V9.4333H34.2872V6.11398C34.2872 4.2317 32.7613 2.70581 30.879 2.70581H27.2042C27.0272 1.19347 25.6803 0.0175781 24.0451 0.0175781ZM24.0402 4.05854C24.6254 4.05854 25.0998 3.60674 25.0998 3.04941C25.0998 2.49209 24.6254 2.04029 24.0402 2.04029C23.455 2.04029 22.9806 2.49209 22.9806 3.04941C22.9806 3.60674 23.455 4.05854 24.0402 4.05854Z" fill="#F6F8F8"/>
<path fill-rule="evenodd" clip-rule="evenodd" d="M11.8562 7.16884V10.4719H35.225V7.16884H45.1646C45.8388 7.16884 46.3853 7.71536 46.3853 8.38953V19.7175L45.1346 18.5123L44.1544 17.5676L43.1415 18.4772L34.4261 26.3032L36.3816 28.4809L44.084 21.5644L46.3853 23.782V35.1769C44.11 35.5233 41.9282 36.3653 39.9986 37.6546C37.4056 39.3872 35.3846 41.8498 34.1911 44.731C32.9977 47.6122 32.6854 50.7826 33.2939 53.8413C33.7822 56.2963 34.846 58.5908 36.3872 60.5412H2.08251C1.40834 60.5412 0.861816 59.9947 0.861816 59.3205V8.38953C0.861816 7.71536 1.40834 7.16884 2.0825 7.16884H11.8562ZM34.3923 15.7667H6.67545V14.596H34.3923V15.7667ZM6.6756 22.8462H34.3925V21.6755H6.6756V22.8462ZM34.3925 29.6451H6.6756V28.4744H34.3925V29.6451ZM6.6756 36.4374H34.3925V35.2667H6.6756V36.4374ZM6.57751 44.1843H13.3364V56.6348H6.57751V44.1843ZM21.5185 38.8535H14.7597V56.6399H21.5185V38.8535ZM22.9483 47.7469H29.7072V56.6401H22.9483V47.7469Z" fill="#F6F8F8"/>
<path fill-rule="evenodd" clip-rule="evenodd" d="M46.4411 23.9344L46.3921 19.6443L54.1847 27.0127L62.743 22.4166L64.2701 25.2601L53.619 30.9801L46.4411 23.9344Z" fill="#F6F8F8"/>
<path d="M66.162 21.777L63.5 27.2667L60.0768 22.2165L66.162 21.777Z" fill="#F6F8F8"/>
<path d="M64.5679 51.2898C64.5679 54.1992 63.7052 57.0433 62.0888 59.4624C60.4724 61.8814 58.175 63.7669 55.4871 64.8803C52.7991 65.9936 49.8414 66.2849 46.9879 65.7173C44.1344 65.1497 41.5133 63.7487 39.4561 61.6915L49.8577 51.2898H64.5679Z" fill="#F6F8F8"/>
<path d="M38.7992 61.0683C36.742 59.011 35.341 56.3899 34.7734 53.5364C34.2058 50.6829 34.4971 47.7252 35.6105 45.0373C36.7238 42.3493 38.6093 40.0519 41.0284 38.4355C43.4474 36.8192 46.2915 35.9564 49.2009 35.9564V50.6666L38.7992 61.0683Z" fill="#F6F8F8"/>
</svg>
