<svg width="25" height="24" viewBox="0 0 25 24" fill="none" xmlns="http://www.w3.org/2000/svg">
<path fill-rule="evenodd" clip-rule="evenodd" d="M20.8314 12.1972C20.8314 11.5818 20.7762 10.9901 20.6736 10.4221H12.5V13.7791H17.1706C16.9695 14.8639 16.358 15.7831 15.4389 16.3984V18.576H18.2436C19.8847 17.0651 20.8314 14.8403 20.8314 12.1972Z" fill="#4285F4"/>
<path fill-rule="evenodd" clip-rule="evenodd" d="M12.5 20.6786C14.8432 20.6786 16.8077 19.9014 18.2436 18.576L15.4389 16.3984C14.6618 16.9192 13.6677 17.2269 12.5 17.2269C10.2396 17.2269 8.3264 15.7002 7.64395 13.6489H4.74452V15.8975C6.17253 18.7338 9.10747 20.6786 12.5 20.6786Z" fill="#34A853"/>
<path fill-rule="evenodd" clip-rule="evenodd" d="M7.64395 13.6489C7.47038 13.1282 7.37175 12.572 7.37175 12C7.37175 11.428 7.47037 10.8718 7.64394 10.3511V8.10253H4.74451C4.15674 9.27414 3.82143 10.5996 3.82143 12C3.82143 13.4004 4.15674 14.7259 4.74452 15.8975L7.64395 13.6489Z" fill="#FBBC05"/>
<path fill-rule="evenodd" clip-rule="evenodd" d="M12.5 6.77313C13.7742 6.77313 14.9182 7.21101 15.8176 8.07097L18.3068 5.5818C16.8038 4.1814 14.8393 3.32143 12.5 3.32143C9.10747 3.32143 6.17253 5.26622 4.74451 8.10253L7.64394 10.3511C8.3264 8.29977 10.2396 6.77313 12.5 6.77313Z" fill="#EA4335"/>
</svg>
