<svg width="24" height="24" viewBox="0 0 24 24" fill="none" xmlns="http://www.w3.org/2000/svg">
<path d="M19.3573 12.7175C19.5 12.373 19.5 11.9361 19.5 11.0625C19.5 10.1889 19.5 9.75204 19.3573 9.40747C19.167 8.94804 18.802 8.58303 18.3425 8.39273C17.998 8.25 17.5611 8.25 16.6875 8.25H11.25C10.1999 8.25 9.67485 8.25 9.27377 8.45436C8.92096 8.63413 8.63413 8.92096 8.45436 9.27377C8.25 9.67485 8.25 10.1999 8.25 11.25V16.6875C8.25 17.5611 8.25 17.998 8.39273 18.3425C8.58303 18.802 8.94804 19.167 9.40747 19.3573C9.75204 19.5 10.1889 19.5 11.0625 19.5C11.9361 19.5 12.373 19.5 12.7175 19.3573M19.3573 12.7175C19.167 13.177 18.802 13.542 18.3425 13.7323C17.998 13.875 17.5611 13.875 16.6875 13.875C15.8139 13.875 15.377 13.875 15.0325 14.0177C14.573 14.208 14.208 14.573 14.0177 15.0325C13.875 15.377 13.875 15.8139 13.875 16.6875C13.875 17.5611 13.875 17.998 13.7323 18.3425C13.542 18.802 13.177 19.167 12.7175 19.3573M19.3573 12.7175C18.447 15.8573 16.0211 18.3303 12.8994 19.3007L12.7175 19.3573M15.75 8.25L15.75 7.5C15.75 6.4499 15.75 5.92485 15.5456 5.52377C15.3659 5.17096 15.079 4.88413 14.7262 4.70436C14.3251 4.5 13.8001 4.5 12.75 4.5H7.5C6.4499 4.5 5.92485 4.5 5.52377 4.70436C5.17096 4.88413 4.88413 5.17096 4.70436 5.52377C4.5 5.92485 4.5 6.4499 4.5 7.5V12.75C4.5 13.8001 4.5 14.3251 4.70436 14.7262C4.88413 15.079 5.17096 15.3659 5.52377 15.5456C5.92485 15.75 6.45008 15.75 7.50055 15.75H8.25" stroke="#818181" stroke-width="1.5" stroke-linecap="round" stroke-linejoin="round"/>
</svg>
