<svg width="16" height="16" viewBox="0 0 16 16" fill="none" xmlns="http://www.w3.org/2000/svg">
<path fill-rule="evenodd" clip-rule="evenodd" d="M15.8424 3.27913L15.3552 3.56454C13.1101 4.87975 11.3745 6.61275 10.197 8.02515C9.60941 8.72992 9.16401 9.35102 8.8666 9.79407C8.71796 10.0155 8.6065 10.1921 8.53292 10.3121C8.49614 10.3721 8.46884 10.4179 8.45112 10.448L8.43174 10.4813L8.42747 10.4887L8.42681 10.4899L8.26471 10.7767H7.60813L7.44091 10.5239L7.43905 10.5211L7.43076 10.5088C7.42305 10.4975 7.411 10.4798 7.3948 10.4566C7.3624 10.4101 7.31348 10.3412 7.24955 10.2548C7.12153 10.0817 6.93429 9.83989 6.69993 9.5682C6.22653 9.01938 5.58153 8.3731 4.86203 7.91822L4.38477 7.61648L4.98823 6.66192L5.4655 6.96366C6.31876 7.5031 7.0477 8.24239 7.55505 8.83056C7.67739 8.97239 7.78803 9.10683 7.88567 9.22943C7.89977 9.20824 7.9142 9.18663 7.92897 9.16463C8.2446 8.69444 8.71322 8.04129 9.32956 7.30199C10.5599 5.82626 12.3915 3.99188 14.7844 2.5901L15.2716 2.30469L15.8424 3.27913Z" fill="#5FB868"/>
<path fill-rule="evenodd" clip-rule="evenodd" d="M0.15625 7.99952C0.15625 3.84147 3.52694 0.470703 7.6849 0.470703C11.8429 0.470703 15.2135 3.84147 15.2135 7.99952C15.2135 12.1576 11.8429 15.5283 7.6849 15.5283C3.52694 15.5283 0.15625 12.1576 0.15625 7.99952ZM7.6849 1.60003C4.15063 1.60003 1.28555 4.46518 1.28555 7.99952C1.28555 11.5339 4.15063 14.399 7.6849 14.399C11.2192 14.399 14.0842 11.5339 14.0842 7.99952C14.0842 4.46518 11.2192 1.60003 7.6849 1.60003Z" fill="#5FB868"/>
</svg>
