<svg width="12" height="16" viewBox="0 0 12 16" fill="none" xmlns="http://www.w3.org/2000/svg">
<path d="M8.91521 1.96759L8.98839 2.00984C9.62061 2.37483 10.1478 2.67918 10.5338 2.97708C10.9413 3.29151 11.2647 3.65242 11.4001 4.15795C11.5356 4.66347 11.436 5.13773 11.2403 5.61376C11.1045 5.94418 10.9048 6.31548 10.6642 6.73901L10.148 6.4322L10.1414 6.4283L4.51458 3.17966L3.98837 2.86953C4.23219 2.45426 4.45188 2.09958 4.66816 1.81931C4.98259 1.41186 5.3435 1.08846 5.84903 0.953006C6.35455 0.817551 6.8288 0.917167 7.30484 1.11282C7.75584 1.29818 8.28302 1.60257 8.91521 1.96759Z" fill="white"/>
<path d="M3.37784 3.92437L0.551984 8.81879C0.310033 9.23707 0.118722 9.5678 0.0478427 9.94399C-0.0230362 10.3202 0.0348033 10.6979 0.107953 11.1755L0.127661 11.3046C0.262687 12.1913 0.373984 12.9222 0.541846 13.4765C0.717405 14.0562 0.987281 14.5579 1.51806 14.8643C2.04885 15.1708 2.6183 15.1536 3.20808 15.0158C3.77201 14.8841 4.46063 14.615 5.29607 14.2886L5.41774 14.2411C5.86797 14.0656 6.22396 13.9269 6.51432 13.6774C6.80467 13.4279 6.99543 13.0969 7.2367 12.6782L10.0559 7.79519L9.52866 7.48184L3.89811 4.23103L3.37784 3.92437Z" fill="white"/>
</svg>
