<svg width="82" height="82" viewBox="0 0 82 82" fill="none" xmlns="http://www.w3.org/2000/svg">
<path fill-rule="evenodd" clip-rule="evenodd" d="M62.3702 50.105L63.2665 43.6645C63.5423 41.6829 63.7944 39.8714 64.0185 38.2096C64.479 34.7946 64.7092 33.0871 63.6882 31.9192C62.6672 30.7513 60.9124 30.7513 57.4027 30.7513H24.5961C21.0864 30.7513 19.3316 30.7513 18.3105 31.9192C17.2895 33.0871 17.5198 34.7946 17.9803 38.2096C18.2045 39.8719 18.4564 41.6822 18.7323 43.6645L19.6286 50.1051C20.6027 57.1048 21.0898 60.6048 22.1226 63.4157C24.0539 68.6722 27.3923 72.5873 31.3768 74.2688C33.5076 75.1679 36.0049 75.1679 40.9994 75.1679C45.9939 75.1679 48.4911 75.1679 50.6219 74.2688C54.6065 72.5873 57.9449 68.6722 59.8762 63.4157C60.909 60.6048 61.396 57.1049 62.3702 50.105ZM36.7285 37.5846C36.7285 36.1694 35.5812 35.0221 34.166 35.0221C32.7508 35.0221 31.6035 36.1694 31.6035 37.5846V64.9179C31.6035 66.3332 32.7508 67.4804 34.166 67.4804C35.5812 67.4804 36.7285 66.3332 36.7285 64.9179V37.5846ZM50.3952 37.5846C50.3952 36.1694 49.2479 35.0221 47.8327 35.0221C46.4175 35.0221 45.2702 36.1694 45.2702 37.5846V64.9179C45.2702 66.3332 46.4175 67.4804 47.8327 67.4804C49.2479 67.4804 50.3952 66.3332 50.3952 64.9179V37.5846Z" fill="#785FBB"/>
<path d="M40.9993 4.27209C32.0362 4.27209 24.7702 11.5381 24.7702 20.5013V21.3554H13.666C12.2508 21.3554 11.1035 22.5027 11.1035 23.9179C11.1035 25.3332 12.2508 26.4804 13.666 26.4804H68.3327C69.7479 26.4804 70.8952 25.3332 70.8952 23.9179C70.8952 22.5027 69.7479 21.3554 68.3327 21.3554H57.2285V20.5013C57.2285 11.5381 49.9625 4.27209 40.9993 4.27209Z" fill="#785FBB"/>
</svg>
