<svg width="88" height="111" viewBox="0 0 88 111" fill="none" xmlns="http://www.w3.org/2000/svg">
<g opacity="0.8">
<path d="M7.00024 50.6835L39.9221 69.5757L41.5735 70.5231L41.5735 110.202L8.65164 91.31L7.00024 90.3626L7.00024 50.6835Z" fill="#CAC3DE"/>
<path d="M79.449 50.6835L79.449 90.3626L77.7976 91.31L44.8757 110.202L44.8757 70.5231L46.5271 69.5757L79.449 50.6835Z" fill="#CAC3DE"/>
<path d="M88.0003 34.3683L77.7975 47.8413L44.8757 66.7334L43.2251 67.6816L46.2689 63.7545L53.9041 54.4817L66.9097 46.8103L70.2116 44.8624L88.0003 34.3683Z" fill="#CAC3DE"/>
<path d="M43 28.1641L33.9185 9L19.4852 17.5568L16.2005 19.5044L-8.2572e-07 29.1097L8.60686 48L41.3572 29.1113L43 28.1641Z" fill="#CAC3DE"/>
</g>
<path d="M47.5739 6.09091L46.9091 30.5341H40.6705L39.9886 6.09091H47.5739ZM43.7898 41.4432C42.6648 41.4432 41.6989 41.0455 40.892 40.25C40.0852 39.4432 39.6875 38.4773 39.6989 37.3523C39.6875 36.2386 40.0852 35.2841 40.892 34.4886C41.6989 33.6932 42.6648 33.2955 43.7898 33.2955C44.8693 33.2955 45.8182 33.6932 46.6364 34.4886C47.4545 35.2841 47.8693 36.2386 47.8807 37.3523C47.8693 38.1023 47.6705 38.7898 47.2841 39.4148C46.9091 40.0284 46.4148 40.5227 45.8011 40.8977C45.1875 41.2614 44.517 41.4432 43.7898 41.4432Z" fill="#785FBB" fill-opacity="0.8"/>
</svg>
