<svg width="22" height="25" viewBox="0 0 22 25" fill="none" xmlns="http://www.w3.org/2000/svg">
<path d="M16.7394 5.74741L17.7398 8.14828C17.7902 8.24655 17.9188 8.32717 18.0297 8.32717C18.1406 8.32717 18.2691 8.24655 18.3169 8.14828L19.32 5.74741L21.7217 4.74598C21.82 4.69688 21.9007 4.56709 21.9007 4.45753C21.9007 4.34668 21.82 4.21818 21.7217 4.16908L19.32 3.16765L18.3169 0.766781C18.2691 0.668508 18.1406 0.587891 18.0297 0.587891C17.9188 0.587891 17.7902 0.668508 17.7398 0.766781L16.7394 3.16765L14.3376 4.16908C14.2393 4.21818 14.1587 4.34668 14.1587 4.45753C14.1587 4.56709 14.2393 4.69688 14.3376 4.74598L16.7394 5.74741Z" fill="#8973D0"/>
<path d="M7.18616 17.7232L9.72587 23.8177C9.85382 24.0672 10.1801 24.2718 10.4616 24.2718C10.7431 24.2718 11.0694 24.0672 11.1908 23.8177L13.7371 17.7232L19.8337 15.1811C20.0833 15.0565 20.288 14.727 20.288 14.4489C20.288 14.1675 20.0833 13.8413 19.8337 13.7167L13.7371 11.1746L11.1908 5.08008C11.0694 4.83062 10.7431 4.62598 10.4616 4.62598C10.1801 4.62598 9.85382 4.83062 9.72587 5.08008L7.18616 11.1746L1.08952 13.7167C0.839969 13.8413 0.635254 14.1675 0.635254 14.4489C0.635254 14.727 0.839969 15.0565 1.08952 15.1811L7.18616 17.7232Z" fill="#8973D0"/>
</svg>
