<svg width="20" height="20" viewBox="0 0 20 20" fill="none" xmlns="http://www.w3.org/2000/svg">
<path d="M10.001 0.833344C10.5482 0.833344 11.09 0.941118 11.5956 1.15051C12.1011 1.35991 12.5604 1.66682 12.9473 2.05373C13.3342 2.44064 13.6411 2.89997 13.8505 3.4055C14.0599 3.91102 14.1677 4.45284 14.1677 5.00001V8.33334C14.1677 9.43841 13.7287 10.4982 12.9473 11.2796C12.1659 12.061 11.1061 12.5 10.001 12.5C8.89597 12.5 7.83616 12.061 7.05476 11.2796C6.27336 10.4982 5.83437 9.43841 5.83437 8.33334V5.00001C5.83437 3.89494 6.27336 2.83513 7.05476 2.05373C7.83616 1.27233 8.89597 0.833344 10.001 0.833344ZM2.54688 9.16668H4.22604C4.42795 10.554 5.1226 11.8222 6.1829 12.7394C7.2432 13.6566 8.59827 14.1613 10.0002 14.1613C11.4021 14.1613 12.7572 13.6566 13.8175 12.7394C14.8778 11.8222 15.5725 10.554 15.7744 9.16668H17.4544C17.2649 10.8573 16.5066 12.4333 15.3037 13.6363C14.1009 14.8393 12.5249 15.5978 10.8344 15.7875V19.1667H9.16771V15.7875C7.47699 15.598 5.90086 14.8395 4.69785 13.6365C3.49485 12.4335 2.73639 10.8574 2.54688 9.16668Z" fill="url(#paint0_linear_3088_18128)"/>
<path d="M10.001 0.833344C10.5482 0.833344 11.09 0.941118 11.5956 1.15051C12.1011 1.35991 12.5604 1.66682 12.9473 2.05373C13.3342 2.44064 13.6411 2.89997 13.8505 3.4055C14.0599 3.91102 14.1677 4.45284 14.1677 5.00001V8.33334C14.1677 9.43841 13.7287 10.4982 12.9473 11.2796C12.1659 12.061 11.1061 12.5 10.001 12.5C8.89597 12.5 7.83616 12.061 7.05476 11.2796C6.27336 10.4982 5.83437 9.43841 5.83437 8.33334V5.00001C5.83437 3.89494 6.27336 2.83513 7.05476 2.05373C7.83616 1.27233 8.89597 0.833344 10.001 0.833344ZM2.54688 9.16668H4.22604C4.42795 10.554 5.1226 11.8222 6.1829 12.7394C7.2432 13.6566 8.59827 14.1613 10.0002 14.1613C11.4021 14.1613 12.7572 13.6566 13.8175 12.7394C14.8778 11.8222 15.5725 10.554 15.7744 9.16668H17.4544C17.2649 10.8573 16.5066 12.4333 15.3037 13.6363C14.1009 14.8393 12.5249 15.5978 10.8344 15.7875V19.1667H9.16771V15.7875C7.47699 15.598 5.90086 14.8395 4.69785 13.6365C3.49485 12.4335 2.73639 10.8574 2.54688 9.16668Z" fill="url(#paint1_linear_3088_18128)" fill-opacity="0.2"/>
<defs>
<linearGradient id="paint0_linear_3088_18128" x1="2.54688" y1="11.0185" x2="17.4544" y2="11.0185" gradientUnits="userSpaceOnUse">
<stop offset="0.389325" stop-color="#9747FF"/>
<stop offset="1" stop-color="#3B5BEC"/>
</linearGradient>
<linearGradient id="paint1_linear_3088_18128" x1="10.0006" y1="0.833344" x2="10.0006" y2="19.1667" gradientUnits="userSpaceOnUse">
<stop stop-color="#3B5BEC"/>
<stop offset="1" stop-color="#019CDE"/>
</linearGradient>
</defs>
</svg>
