<svg width="20" height="20" viewBox="0 0 20 20" fill="none" xmlns="http://www.w3.org/2000/svg">
<path fill-rule="evenodd" clip-rule="evenodd" d="M2.83648 5.56082C2.61981 3.61582 4.62231 2.18749 6.39148 3.02582L16.3448 7.74082C18.2515 8.64332 18.2515 11.3567 16.3448 12.2592L6.39148 16.975C4.62231 17.8133 2.62064 16.385 2.83648 14.44L3.23648 10.8333H10.0015C10.2225 10.8333 10.4345 10.7455 10.5907 10.5892C10.747 10.433 10.8348 10.221 10.8348 9.99999C10.8348 9.77898 10.747 9.56702 10.5907 9.41074C10.4345 9.25445 10.2225 9.16666 10.0015 9.16666H3.23731L2.83731 5.56082H2.83648Z" fill="url(#paint0_linear_3088_18130)"/>
<path fill-rule="evenodd" clip-rule="evenodd" d="M2.83648 5.56082C2.61981 3.61582 4.62231 2.18749 6.39148 3.02582L16.3448 7.74082C18.2515 8.64332 18.2515 11.3567 16.3448 12.2592L6.39148 16.975C4.62231 17.8133 2.62064 16.385 2.83648 14.44L3.23648 10.8333H10.0015C10.2225 10.8333 10.4345 10.7455 10.5907 10.5892C10.747 10.433 10.8348 10.221 10.8348 9.99999C10.8348 9.77898 10.747 9.56702 10.5907 9.41074C10.4345 9.25445 10.2225 9.16666 10.0015 9.16666H3.23731L2.83731 5.56082H2.83648Z" fill="url(#paint1_linear_3088_18130)" fill-opacity="0.2"/>
<defs>
<linearGradient id="paint0_linear_3088_18130" x1="2.82031" y1="10.8026" x2="17.7748" y2="10.8026" gradientUnits="userSpaceOnUse">
<stop offset="0.389325" stop-color="#9747FF"/>
<stop offset="1" stop-color="#3B5BEC"/>
</linearGradient>
<linearGradient id="paint1_linear_3088_18130" x1="10.2976" y1="2.78082" x2="10.2976" y2="17.22" gradientUnits="userSpaceOnUse">
<stop stop-color="#3B5BEC"/>
<stop offset="1" stop-color="#019CDE"/>
</linearGradient>
</defs>
</svg>
