<svg width="13" height="14" viewBox="0 0 13 14" fill="none" xmlns="http://www.w3.org/2000/svg">
<path d="M12.682 9.71551C12.8865 9.10188 12.9935 8.45998 12.9991 7.8132C13.0147 7.0531 12.83 6.30227 12.4636 5.63612C12.2859 5.33502 12.0456 5.07554 11.7591 4.8752C11.4402 4.66257 11.0643 4.55199 10.6811 4.55815H9.15925C9.12114 4.55942 9.08319 4.55253 9.04795 4.53795C9.01271 4.52337 8.981 4.50143 8.95493 4.4736C8.90314 4.41785 8.87313 4.34532 8.87038 4.26928V4.19178L9.44107 2.90244C9.55735 2.63574 9.61731 2.34791 9.61721 2.05697C9.61672 1.49658 9.39371 0.959316 8.9972 0.563306L8.8422 0.408303C8.69974 0.267104 8.52878 0.157945 8.34074 0.0881254C8.15271 0.0183056 7.95193 -0.0105664 7.75184 0.00343984C7.55175 0.0174461 7.35696 0.0740077 7.18049 0.169343C7.00401 0.264679 6.84993 0.396591 6.72853 0.55626L3.69188 4.55815C3.40672 4.23806 3.03097 4.01224 2.61448 3.91067C2.198 3.8091 1.76047 3.83657 1.35996 3.98943C0.959451 4.1423 0.614891 4.41334 0.372001 4.76658C0.12911 5.11982 -0.000627677 5.53857 2.2833e-06 5.96726V11.6037C2.2833e-06 12.1643 0.222692 12.7019 0.619083 13.0983C1.01547 13.4947 1.55309 13.7174 2.11367 13.7174C2.60753 13.7164 3.08479 13.539 3.45938 13.2172C3.8377 13.5373 4.31651 13.7144 4.81213 13.7174H9.10288C9.56815 13.722 10.0259 13.6002 10.4275 13.3651C11.0034 13.0009 11.4669 12.4838 11.7661 11.8715C12.1318 11.18 12.4382 10.4588 12.682 9.71551ZM2.11367 12.3083C1.92681 12.3083 1.74761 12.2341 1.61548 12.1019C1.48335 11.9698 1.40912 11.7906 1.40912 11.6037V5.96726C1.40912 5.7804 1.48335 5.60119 1.61548 5.46906C1.74761 5.33693 1.92681 5.2627 2.11367 5.2627C2.30053 5.2627 2.47974 5.33693 2.61187 5.46906C2.744 5.60119 2.81823 5.7804 2.81823 5.96726V11.6037C2.81823 11.7906 2.744 11.9698 2.61187 12.1019C2.47974 12.2341 2.30053 12.3083 2.11367 12.3083ZM10.2584 11.6037C10.1131 11.8111 9.92879 11.9881 9.71585 12.1251C9.5295 12.2317 9.31752 12.2853 9.10288 12.2801H4.81213C4.71941 12.2806 4.62749 12.2629 4.54165 12.2278C4.4558 12.1927 4.37773 12.1411 4.31189 12.0758L4.22735 11.9771C4.23811 11.8529 4.23811 11.728 4.22735 11.6037V6.19977L7.82764 1.40173L7.98264 1.55673C8.04794 1.62257 8.0996 1.70064 8.13466 1.78648C8.16972 1.87233 8.1875 1.96424 8.18696 2.05697C8.18551 2.15428 8.16392 2.25024 8.12355 2.33879L7.53877 3.6704V3.73381C7.47765 3.9057 7.44667 4.08685 7.44717 4.26928C7.44717 4.49345 7.49155 4.71541 7.57776 4.92234C7.66397 5.12927 7.79031 5.31709 7.94947 5.47494C8.10864 5.6328 8.29749 5.75758 8.50513 5.84208C8.71277 5.92658 8.93508 5.96912 9.15925 5.96726H10.7163C10.8068 5.96664 10.8953 5.99368 10.97 6.04476C11.1649 6.19575 11.3098 6.402 11.3857 6.63659C11.5277 7.01231 11.597 7.4116 11.59 7.8132C11.5866 8.30713 11.5033 8.79726 11.3434 9.26459C11.0949 10.092 10.7295 10.8796 10.2584 11.6037Z" fill="#6A6A6A"/>
</svg>
