<svg width="12" height="12" viewBox="0 0 12 12" fill="none" xmlns="http://www.w3.org/2000/svg">
<g clip-path="url(#clip0_6322_6777)">
<path d="M6 0C5.58 0 5.25 0.33 5.25 0.75C5.25 1.17 5.58 1.5 6 1.5C6.42 1.5 6.75 1.17 6.75 0.75C6.75 0.33 6.42 0 6 0ZM2.25 1.5C1.83 1.5 1.5 1.83 1.5 2.25C1.5 2.67 1.83 3 2.25 3C2.67 3 3 2.67 3 2.25C3 1.83 2.67 1.5 2.25 1.5ZM9.75 1.5C9.33 1.5 9 1.83 9 2.25C9 2.67 9.33 3 9.75 3C10.17 3 10.5 2.67 10.5 2.25C10.5 1.83 10.17 1.5 9.75 1.5ZM6 3C4.35 3 3 4.35 3 6C3 7.65 4.35 9 6 9C7.65 9 9 7.65 9 6C9 4.35 7.65 3 6 3ZM0.75 5.25C0.33 5.25 0 5.58 0 6C0 6.42 0.33 6.75 0.75 6.75C1.17 6.75 1.5 6.42 1.5 6C1.5 5.58 1.17 5.25 0.75 5.25ZM11.25 5.25C10.83 5.25 10.5 5.58 10.5 6C10.5 6.42 10.83 6.75 11.25 6.75C11.67 6.75 12 6.42 12 6C12 5.58 11.67 5.25 11.25 5.25ZM2.25 9C1.83 9 1.5 9.33 1.5 9.75C1.5 10.17 1.83 10.5 2.25 10.5C2.67 10.5 3 10.17 3 9.75C3 9.33 2.67 9 2.25 9ZM9.75 9C9.33 9 9 9.33 9 9.75C9 10.17 9.33 10.5 9.75 10.5C10.17 10.5 10.5 10.17 10.5 9.75C10.5 9.33 10.17 9 9.75 9ZM6 10.5C5.58 10.5 5.25 10.83 5.25 11.25C5.25 11.67 5.58 12 6 12C6.42 12 6.75 11.67 6.75 11.25C6.75 10.83 6.42 10.5 6 10.5Z" fill="#785FBB"/>
</g>
<defs>
<clipPath id="clip0_6322_6777">
<rect width="12" height="12" fill="white"/>
</clipPath>
</defs>
</svg>
