<svg width="20" height="20" viewBox="0 0 20 20" fill="none" xmlns="http://www.w3.org/2000/svg">
<rect x="0.5" y="0.5" width="19" height="19" rx="9.5" fill="url(#paint0_radial_10198_64858)"/>
<rect x="0.5" y="0.5" width="19" height="19" rx="9.5" stroke="url(#paint1_linear_10198_64858)" style="mix-blend-mode:overlay"/>
<g clip-path="url(#clip0_10198_64858)">
<path d="M10 4C9.58 4 9.25 4.33 9.25 4.75C9.25 5.17 9.58 5.5 10 5.5C10.42 5.5 10.75 5.17 10.75 4.75C10.75 4.33 10.42 4 10 4ZM6.25 5.5C5.83 5.5 5.5 5.83 5.5 6.25C5.5 6.67 5.83 7 6.25 7C6.67 7 7 6.67 7 6.25C7 5.83 6.67 5.5 6.25 5.5ZM13.75 5.5C13.33 5.5 13 5.83 13 6.25C13 6.67 13.33 7 13.75 7C14.17 7 14.5 6.67 14.5 6.25C14.5 5.83 14.17 5.5 13.75 5.5ZM10 7C8.35 7 7 8.35 7 10C7 11.65 8.35 13 10 13C11.65 13 13 11.65 13 10C13 8.35 11.65 7 10 7ZM4.75 9.25C4.33 9.25 4 9.58 4 10C4 10.42 4.33 10.75 4.75 10.75C5.17 10.75 5.5 10.42 5.5 10C5.5 9.58 5.17 9.25 4.75 9.25ZM15.25 9.25C14.83 9.25 14.5 9.58 14.5 10C14.5 10.42 14.83 10.75 15.25 10.75C15.67 10.75 16 10.42 16 10C16 9.58 15.67 9.25 15.25 9.25ZM6.25 13C5.83 13 5.5 13.33 5.5 13.75C5.5 14.17 5.83 14.5 6.25 14.5C6.67 14.5 7 14.17 7 13.75C7 13.33 6.67 13 6.25 13ZM13.75 13C13.33 13 13 13.33 13 13.75C13 14.17 13.33 14.5 13.75 14.5C14.17 14.5 14.5 14.17 14.5 13.75C14.5 13.33 14.17 13 13.75 13ZM10 14.5C9.58 14.5 9.25 14.83 9.25 15.25C9.25 15.67 9.58 16 10 16C10.42 16 10.75 15.67 10.75 15.25C10.75 14.83 10.42 14.5 10 14.5Z" fill="#785FBB"/>
</g>
<defs>
<radialGradient id="paint0_radial_10198_64858" cx="0" cy="0" r="1" gradientUnits="userSpaceOnUse" gradientTransform="translate(10 10) rotate(87.2737) scale(12.0136)">
<stop stop-color="white"/>
<stop offset="1" stop-color="#DEC7E6"/>
</radialGradient>
<linearGradient id="paint1_linear_10198_64858" x1="7.73948e-08" y1="10.2857" x2="20" y2="10.2857" gradientUnits="userSpaceOnUse">
<stop/>
<stop offset="1" stop-opacity="0"/>
</linearGradient>
<clipPath id="clip0_10198_64858">
<rect width="12" height="12" fill="white" transform="translate(4 4)"/>
</clipPath>
</defs>
</svg>
