<svg width="188" height="188" viewBox="0 0 188 188" fill="none" xmlns="http://www.w3.org/2000/svg">
<g filter="url(#filter0_d_1020_18221)">
<g clip-path="url(#clip0_1020_18221)">
<rect x="77" y="28" width="100" height="100" rx="50" fill="url(#paint0_linear_1020_18221)"/>
<circle cx="128" cy="83" r="57" fill="url(#paint1_linear_1020_18221)"/>
<path d="M143.85 28C123.597 59.7272 91.6674 60.7618 78.2343 57.3132C74.101 70.6478 73.7565 79.7292 74.101 82.603C125.767 86.7413 155.561 57.5048 164 42.3692C162.76 37.3113 150.05 30.6823 143.85 28Z" fill="url(#paint2_linear_1020_18221)"/>
<path d="M163.5 43.5C143.9 71.1 88.0977 79.5 75.0977 76.5C71.0977 88.1 70.7644 96 71.0977 98.5C121.098 102.1 152.5 86 174.5 59.5C173.3 55.1 169.5 45.8333 163.5 43.5Z" fill="url(#paint3_linear_1020_18221)"/>
<path d="M163.5 86C143.9 113.6 88.0977 122 75.0977 119C71.0977 130.6 70.7644 138.5 71.0977 141C121.098 144.6 152.5 128.5 174.5 102C173.3 97.6 169.5 88.3333 163.5 86Z" fill="url(#paint4_linear_1020_18221)"/>
<path d="M177 74.4993C152.696 102.189 104.201 111.592 88.0808 108.582C83.1209 120.219 108.587 122.991 109 125.5C170.999 129.111 177.873 82.7083 188 69.499C186.512 65.0848 184.44 76.8402 177 74.4993Z" fill="url(#paint5_linear_1020_18221)"/>
<circle cx="128" cy="83" r="57" fill="url(#paint6_linear_1020_18221)"/>
</g>
</g>
<defs>
<filter id="filter0_d_1020_18221" x="0.400002" y="0.400002" width="187.2" height="187.2" filterUnits="userSpaceOnUse" color-interpolation-filters="sRGB">
<feFlood flood-opacity="0" result="BackgroundImageFix"/>
<feColorMatrix in="SourceAlpha" type="matrix" values="0 0 0 0 0 0 0 0 0 0 0 0 0 0 0 0 0 0 127 0" result="hardAlpha"/>
<feOffset dx="-33" dy="16"/>
<feGaussianBlur stdDeviation="21.8"/>
<feComposite in2="hardAlpha" operator="out"/>
<feColorMatrix type="matrix" values="0 0 0 0 0 0 0 0 0 0 0 0 0 0 0 0 0 0 0.25 0"/>
<feBlend mode="normal" in2="BackgroundImageFix" result="effect1_dropShadow_1020_18221"/>
<feBlend mode="normal" in="SourceGraphic" in2="effect1_dropShadow_1020_18221" result="shape"/>
</filter>
<linearGradient id="paint0_linear_1020_18221" x1="140.5" y1="28" x2="124" y2="148" gradientUnits="userSpaceOnUse">
<stop stop-color="white"/>
<stop offset="0.908687" stop-color="#D4D4D4"/>
</linearGradient>
<linearGradient id="paint1_linear_1020_18221" x1="92" y1="45" x2="157.5" y2="52" gradientUnits="userSpaceOnUse">
<stop stop-color="#909090" stop-opacity="0.15"/>
<stop offset="0.242359" stop-color="#676767" stop-opacity="0"/>
</linearGradient>
<linearGradient id="paint2_linear_1020_18221" x1="77.2009" y1="75.131" x2="164.516" y2="41.6299" gradientUnits="userSpaceOnUse">
<stop stop-color="#7EB5BA"/>
<stop offset="0.630208" stop-color="#C9EEF1"/>
<stop offset="1" stop-color="#9CD8DD"/>
</linearGradient>
<linearGradient id="paint3_linear_1020_18221" x1="74.0977" y1="92" x2="168.5" y2="51" gradientUnits="userSpaceOnUse">
<stop stop-color="#CEA075"/>
<stop offset="0.59375" stop-color="#EFD181"/>
<stop offset="0.96875" stop-color="#E9DCB0"/>
</linearGradient>
<linearGradient id="paint4_linear_1020_18221" x1="74.0977" y1="134.5" x2="168.5" y2="93.5" gradientUnits="userSpaceOnUse">
<stop stop-color="#9C7046"/>
<stop offset="0.59375" stop-color="#DFCC9A"/>
<stop offset="0.96875" stop-color="#D5C696"/>
</linearGradient>
<linearGradient id="paint5_linear_1020_18221" x1="86.8411" y1="124.133" x2="180.873" y2="74.5251" gradientUnits="userSpaceOnUse">
<stop stop-color="#7EB5BA"/>
<stop offset="0.671875" stop-color="#A2E5EA"/>
</linearGradient>
<linearGradient id="paint6_linear_1020_18221" x1="82" y1="85.5" x2="168.5" y2="68" gradientUnits="userSpaceOnUse">
<stop stop-color="white" stop-opacity="0.14"/>
<stop offset="1" stop-color="#676767" stop-opacity="0"/>
</linearGradient>
<clipPath id="clip0_1020_18221">
<rect x="77" y="28" width="100" height="100" rx="50" fill="white"/>
</clipPath>
</defs>
</svg>
