<svg width="330" height="291" viewBox="0 0 330 291" fill="none" xmlns="http://www.w3.org/2000/svg">
<g filter="url(#filter0_d_1020_18216)">
<g filter="url(#filter1_d_1020_18216)">
<rect x="93.6162" y="26.4727" width="216" height="164" rx="18" transform="rotate(13.221 93.6162 26.4727)" fill="url(#paint0_linear_1020_18216)"/>
</g>
<rect x="94.5078" y="19" width="216" height="164" rx="18" transform="rotate(13.221 94.5078 19)" fill="url(#paint1_linear_1020_18216)"/>
<g filter="url(#filter2_d_1020_18216)">
<path fill-rule="evenodd" clip-rule="evenodd" d="M232.529 106.481C237.908 103.104 239.531 96.0062 236.155 90.6271C232.778 85.248 225.679 83.6248 220.3 87.0017L164.576 121.984L151.894 102.216C148.465 96.87 141.351 95.3165 136.005 98.7459C130.659 102.175 129.106 109.289 132.535 114.635L151.671 144.463C152.079 145.1 152.542 145.681 153.049 146.204L153.052 146.209C155.581 150.236 160.896 151.451 164.923 148.923L165.344 148.659C165.895 148.421 166.435 148.136 166.956 147.801L177.003 141.356L176.996 141.344L232.529 106.481Z" fill="#CFCFCF"/>
</g>
<g filter="url(#filter3_f_1020_18216)">
<path fill-rule="evenodd" clip-rule="evenodd" d="M233.437 105.07C238.295 101.917 239.431 95.9468 236.052 91.3291C232.276 86.1703 224.399 84.7209 218.913 88.1754L165.292 121.939L153.089 103.103C149.904 98.1876 143.015 96.1997 137.701 98.6633C132.387 101.127 130.661 107.109 133.845 112.025L147.519 133.131L146.584 133.719L151.709 139.599L152.282 140.482C153.016 141.615 153.949 142.591 155.015 143.391L156.183 144.731C159.406 148.428 165.353 149.26 169.467 146.59L233.437 105.07Z" fill="url(#paint2_linear_1020_18216)"/>
</g>
</g>
<defs>
<filter id="filter0_d_1020_18216" x="0.700001" y="0.700001" width="328.383" height="289.655" filterUnits="userSpaceOnUse" color-interpolation-filters="sRGB">
<feFlood flood-opacity="0" result="BackgroundImageFix"/>
<feColorMatrix in="SourceAlpha" type="matrix" values="0 0 0 0 0 0 0 0 0 0 0 0 0 0 0 0 0 0 127 0" result="hardAlpha"/>
<feOffset dx="-16" dy="22"/>
<feGaussianBlur stdDeviation="15.15"/>
<feComposite in2="hardAlpha" operator="out"/>
<feColorMatrix type="matrix" values="0 0 0 0 0 0 0 0 0 0 0 0 0 0 0 0 0 0 0.25 0"/>
<feBlend mode="normal" in2="BackgroundImageFix" result="effect1_dropShadow_1020_18216"/>
<feBlend mode="normal" in="SourceGraphic" in2="effect1_dropShadow_1020_18216" result="shape"/>
</filter>
<filter id="filter1_d_1020_18216" x="55.7441" y="30.1074" width="248.512" height="209.783" filterUnits="userSpaceOnUse" color-interpolation-filters="sRGB">
<feFlood flood-opacity="0" result="BackgroundImageFix"/>
<feColorMatrix in="SourceAlpha" type="matrix" values="0 0 0 0 0 0 0 0 0 0 0 0 0 0 0 0 0 0 127 0" result="hardAlpha"/>
<feOffset dy="4"/>
<feGaussianBlur stdDeviation="2"/>
<feComposite in2="hardAlpha" operator="out"/>
<feColorMatrix type="matrix" values="0 0 0 0 0 0 0 0 0 0 0 0 0 0 0 0 0 0 0.25 0"/>
<feBlend mode="normal" in2="BackgroundImageFix" result="effect1_dropShadow_1020_18216"/>
<feBlend mode="normal" in="SourceGraphic" in2="effect1_dropShadow_1020_18216" result="shape"/>
</filter>
<filter id="filter2_d_1020_18216" x="126.713" y="85.2402" width="115.203" height="73.002" filterUnits="userSpaceOnUse" color-interpolation-filters="sRGB">
<feFlood flood-opacity="0" result="BackgroundImageFix"/>
<feColorMatrix in="SourceAlpha" type="matrix" values="0 0 0 0 0 0 0 0 0 0 0 0 0 0 0 0 0 0 127 0" result="hardAlpha"/>
<feOffset dy="4"/>
<feGaussianBlur stdDeviation="2"/>
<feComposite in2="hardAlpha" operator="out"/>
<feColorMatrix type="matrix" values="0 0 0 0 0.858824 0 0 0 0 0.403922 0 0 0 0 0.447059 0 0 0 0.4 0"/>
<feBlend mode="normal" in2="BackgroundImageFix" result="effect1_dropShadow_1020_18216"/>
<feBlend mode="normal" in="SourceGraphic" in2="effect1_dropShadow_1020_18216" result="shape"/>
</filter>
<filter id="filter3_f_1020_18216" x="130.148" y="84.1949" width="109.944" height="66.0594" filterUnits="userSpaceOnUse" color-interpolation-filters="sRGB">
<feFlood flood-opacity="0" result="BackgroundImageFix"/>
<feBlend mode="normal" in="SourceGraphic" in2="BackgroundImageFix" result="shape"/>
<feGaussianBlur stdDeviation="1.05" result="effect1_foregroundBlur_1020_18216"/>
</filter>
<linearGradient id="paint0_linear_1020_18216" x1="104.363" y1="184.223" x2="321.989" y2="155.181" gradientUnits="userSpaceOnUse">
<stop stop-color="#E294A1"/>
<stop offset="1" stop-color="#A04853"/>
</linearGradient>
<linearGradient id="paint1_linear_1020_18216" x1="202.508" y1="19" x2="202.508" y2="183" gradientUnits="userSpaceOnUse">
<stop stop-color="#E193A1"/>
<stop offset="1" stop-color="#E8B4C2"/>
</linearGradient>
<linearGradient id="paint2_linear_1020_18216" x1="183.806" y1="-0.463951" x2="157.641" y2="167.735" gradientUnits="userSpaceOnUse">
<stop offset="0.340308" stop-color="#B8B8B8"/>
<stop offset="0.857695" stop-color="white" stop-opacity="0.370262"/>
<stop offset="1" stop-color="#464646" stop-opacity="0"/>
</linearGradient>
</defs>
</svg>
