<svg width="462" height="372" viewBox="0 0 462 372" fill="none" xmlns="http://www.w3.org/2000/svg">
<g filter="url(#filter0_d_1024_18274)">
<path d="M402.841 74.0373L75.3692 40.2076C64.0152 39.0346 54.197 48.0666 54.4204 59.4788L59.129 300.044C59.334 310.52 67.9808 318.852 78.4569 318.669L432.193 312.494C447.015 312.235 458.06 298.735 455.379 284.156L419.575 89.4996C418.049 81.2018 411.233 74.9043 402.841 74.0373Z" fill="url(#paint0_linear_1024_18274)"/>
</g>
<path d="M406.536 64.0058L79.3692 30.2076C68.0152 29.0346 58.197 38.0666 58.4204 49.4788L63.1317 290.183C63.3357 300.604 71.8971 308.915 82.3197 308.81L437.884 305.223C449.518 305.106 458.315 294.654 456.445 283.17L423.337 79.8515C421.958 71.3817 415.072 64.8876 406.536 64.0058Z" fill="url(#paint1_linear_1024_18274)"/>
<g filter="url(#filter1_d_1024_18274)">
<g filter="url(#filter2_f_1024_18274)">
<rect x="88.2959" y="50.5" width="123" height="17.926" rx="8.96299" transform="rotate(4.14391 88.2959 50.5)" fill="url(#paint2_linear_1024_18274)"/>
</g>
<rect x="88.2959" y="50" width="123" height="17.926" rx="8.96299" transform="rotate(4.14391 88.2959 50)" fill="url(#paint3_linear_1024_18274)"/>
<rect x="88.2949" y="50" width="123" height="17.926" rx="8.96299" transform="rotate(4.14391 88.2949 50)" fill="url(#paint4_linear_1024_18274)"/>
<rect x="88.2959" y="50" width="123" height="17.926" rx="8.96299" transform="rotate(4.14391 88.2959 50)" fill="url(#paint5_linear_1024_18274)"/>
</g>
<g filter="url(#filter3_d_1024_18274)">
<g filter="url(#filter4_f_1024_18274)">
<rect x="111.091" y="2.33008" width="77.8911" height="11.3518" rx="5.67591" transform="rotate(5.05768 111.091 2.33008)" fill="url(#paint6_linear_1024_18274)"/>
</g>
<rect x="111.097" y="2.01367" width="77.8911" height="11.3518" rx="5.67591" transform="rotate(5.05768 111.097 2.01367)" fill="url(#paint7_linear_1024_18274)"/>
<rect x="111.096" y="2.01367" width="77.8911" height="11.3518" rx="5.67591" transform="rotate(5.05768 111.096 2.01367)" fill="url(#paint8_linear_1024_18274)"/>
<rect x="111.097" y="2.01367" width="77.8911" height="11.3518" rx="5.67591" transform="rotate(5.05768 111.097 2.01367)" fill="url(#paint9_linear_1024_18274)"/>
</g>
<g filter="url(#filter5_d_1024_18274)">
<path d="M331.217 65.1041L276.324 59.11C266.312 58.0168 257.792 66.3339 258.644 76.3688L276.236 283.611C276.948 291.993 284.029 298.393 292.441 298.255L351.464 297.287C360.878 297.133 368.124 288.924 367.109 279.564L345.387 79.2843C344.577 71.8178 338.683 65.9194 331.217 65.1041Z" fill="url(#paint10_linear_1024_18274)" shape-rendering="crispEdges"/>
<path d="M331.217 65.1041L276.324 59.11C266.312 58.0168 257.792 66.3339 258.644 76.3688L276.236 283.611C276.948 291.993 284.029 298.393 292.441 298.255L351.464 297.287C360.878 297.133 368.124 288.924 367.109 279.564L345.387 79.2843C344.577 71.8178 338.683 65.9194 331.217 65.1041Z" stroke="url(#paint11_linear_1024_18274)" shape-rendering="crispEdges"/>
</g>
<g filter="url(#filter6_d_1024_18274)">
<g filter="url(#filter7_d_1024_18274)">
<g clip-path="url(#clip0_1024_18274)">
<rect x="384" y="124" width="46" height="45" rx="22.5" fill="url(#paint12_linear_1024_18274)"/>
<circle cx="435" cy="165" r="57" fill="url(#paint13_linear_1024_18274)"/>
<ellipse cx="402.5" cy="145.5" rx="24.5" ry="23.5" fill="url(#paint14_linear_1024_18274)"/>
<g filter="url(#filter8_f_1024_18274)">
<ellipse cx="415.5" cy="145" rx="6.5" ry="6" fill="white"/>
</g>
</g>
</g>
<path fill-rule="evenodd" clip-rule="evenodd" d="M322.429 108.939C324.367 107.091 327.282 106.443 329.92 107.525L393.991 133.781C394.244 133.884 394.409 134.13 394.409 134.404C394.409 138.3 393.06 142.076 390.591 145.089L389.507 146.412C389.265 146.707 388.86 146.808 388.509 146.664L329.287 122.396L256.018 220.843C254.437 222.966 251.534 223.449 249.38 222.113C249.172 222.103 248.962 222.08 248.751 222.043L187.164 211.244L121.531 266.98C118.585 269.482 114.167 269.123 111.665 266.175C109.162 263.228 109.522 258.81 112.469 256.308L179.895 199.048C180.211 198.781 180.542 198.539 180.884 198.328C181.472 197.669 182.229 197.175 183.073 196.902C183.824 196.658 184.644 196.589 185.476 196.734L247.172 207.552L320.33 110.875C320.926 110.087 321.641 109.439 322.429 108.939Z" fill="url(#paint15_linear_1024_18274)"/>
<g filter="url(#filter9_f_1024_18274)">
<path d="M113.319 264.419C112.591 263.561 112.696 262.275 113.553 261.546L184.097 201.639C185.813 200.181 188.385 200.391 189.843 202.107V202.107L116.192 264.653C115.334 265.382 114.048 265.277 113.319 264.419V264.419Z" fill="white" fill-opacity="0.5"/>
</g>
<g filter="url(#filter10_f_1024_18274)">
<path d="M250.645 216.838C249.736 216.173 249.539 214.898 250.203 213.99L321.838 116.053C323.167 114.236 325.717 113.841 327.534 115.17V115.17L253.493 216.396C252.829 217.305 251.554 217.502 250.645 216.838V216.838Z" fill="white" fill-opacity="0.5"/>
</g>
<g filter="url(#filter11_f_1024_18274)">
<path d="M186.339 203.563C186.472 202.802 187.197 202.293 187.958 202.427L249.762 213.24C251.283 213.506 252.301 214.955 252.035 216.477V216.477L187.476 205.181C186.715 205.048 186.206 204.324 186.339 203.563V203.563Z" fill="white" fill-opacity="0.7"/>
</g>
<g filter="url(#filter12_f_1024_18274)">
<path d="M327.53 111.294C327.822 110.579 328.639 110.237 329.354 110.53L387.424 134.29C388.853 134.875 389.538 136.508 388.953 137.937V137.937L328.295 113.118C327.58 112.826 327.238 112.009 327.53 111.294V111.294Z" fill="white" fill-opacity="0.7"/>
</g>
<g filter="url(#filter13_f_1024_18274)">
<path d="M328.53 119.294C328.822 118.579 329.639 118.237 330.354 118.53L388.424 142.29C389.853 142.875 390.538 144.508 389.953 145.937V145.937L329.295 121.118C328.58 120.826 328.238 120.009 328.53 119.294V119.294Z" fill="#7F58BE" fill-opacity="0.7"/>
</g>
<g filter="url(#filter14_f_1024_18274)">
<path d="M255.965 219.742C255.688 219.539 255.628 219.151 255.831 218.874L326.982 121.587C327.387 121.033 328.164 120.912 328.718 121.317V121.317L256.833 219.607C256.631 219.884 256.242 219.944 255.965 219.742V219.742Z" fill="#7F58BE" fill-opacity="0.7"/>
</g>
<g filter="url(#filter15_f_1024_18274)">
<path d="M187.154 209.924C187.239 209.414 187.721 209.069 188.231 209.154L252.732 219.896C253.752 220.066 254.441 221.031 254.272 222.051V222.051L187.924 211.002C187.414 210.917 187.069 210.434 187.154 209.924V209.924Z" fill="#7F58BE" fill-opacity="0.7"/>
</g>
<g filter="url(#filter16_f_1024_18274)">
<path d="M117.302 268.759C116.965 268.367 117.009 267.776 117.402 267.438L185.138 209.22C185.922 208.546 187.105 208.635 187.779 209.419V209.419L118.623 268.859C118.23 269.196 117.639 269.151 117.302 268.759V268.759Z" fill="#7F58BE" fill-opacity="0.7"/>
</g>
</g>
<defs>
<filter id="filter0_d_1024_18274" x="0.416992" y="33.1055" width="461.364" height="338.566" filterUnits="userSpaceOnUse" color-interpolation-filters="sRGB">
<feFlood flood-opacity="0" result="BackgroundImageFix"/>
<feColorMatrix in="SourceAlpha" type="matrix" values="0 0 0 0 0 0 0 0 0 0 0 0 0 0 0 0 0 0 127 0" result="hardAlpha"/>
<feOffset dx="-24" dy="23"/>
<feGaussianBlur stdDeviation="15"/>
<feComposite in2="hardAlpha" operator="out"/>
<feColorMatrix type="matrix" values="0 0 0 0 0 0 0 0 0 0 0 0 0 0 0 0 0 0 0.25 0"/>
<feBlend mode="normal" in2="BackgroundImageFix" result="effect1_dropShadow_1024_18274"/>
<feBlend mode="normal" in="SourceGraphic" in2="effect1_dropShadow_1024_18274" result="shape"/>
</filter>
<filter id="filter1_d_1024_18274" x="80.023" y="50.623" width="130.328" height="35.6195" filterUnits="userSpaceOnUse" color-interpolation-filters="sRGB">
<feFlood flood-opacity="0" result="BackgroundImageFix"/>
<feColorMatrix in="SourceAlpha" type="matrix" values="0 0 0 0 0 0 0 0 0 0 0 0 0 0 0 0 0 0 127 0" result="hardAlpha"/>
<feOffset dx="-4" dy="6"/>
<feGaussianBlur stdDeviation="1.8"/>
<feComposite in2="hardAlpha" operator="out"/>
<feColorMatrix type="matrix" values="0 0 0 0 0.647005 0 0 0 0 0.434816 0 0 0 0 0.116533 0 0 0 0.25 0"/>
<feBlend mode="normal" in2="BackgroundImageFix" result="effect1_dropShadow_1024_18274"/>
<feBlend mode="normal" in="SourceGraphic" in2="effect1_dropShadow_1024_18274" result="shape"/>
</filter>
<filter id="filter2_f_1024_18274" x="85.724" y="49.223" width="126.527" height="29.3195" filterUnits="userSpaceOnUse" color-interpolation-filters="sRGB">
<feFlood flood-opacity="0" result="BackgroundImageFix"/>
<feBlend mode="normal" in="SourceGraphic" in2="BackgroundImageFix" result="shape"/>
<feGaussianBlur stdDeviation="0.95" result="effect1_foregroundBlur_1024_18274"/>
</filter>
<filter id="filter3_d_1024_18274" x="102.968" y="2.49219" width="85.2387" height="27.1352" filterUnits="userSpaceOnUse" color-interpolation-filters="sRGB">
<feFlood flood-opacity="0" result="BackgroundImageFix"/>
<feColorMatrix in="SourceAlpha" type="matrix" values="0 0 0 0 0 0 0 0 0 0 0 0 0 0 0 0 0 0 127 0" result="hardAlpha"/>
<feOffset dx="-4" dy="6"/>
<feGaussianBlur stdDeviation="1.8"/>
<feComposite in2="hardAlpha" operator="out"/>
<feColorMatrix type="matrix" values="0 0 0 0 0.647005 0 0 0 0 0.434816 0 0 0 0 0.116533 0 0 0 0.25 0"/>
<feBlend mode="normal" in2="BackgroundImageFix" result="effect1_dropShadow_1024_18274"/>
<feBlend mode="normal" in="SourceGraphic" in2="effect1_dropShadow_1024_18274" result="shape"/>
</filter>
<filter id="filter4_f_1024_18274" x="108.668" y="0.908594" width="81.4328" height="21.0187" filterUnits="userSpaceOnUse" color-interpolation-filters="sRGB">
<feFlood flood-opacity="0" result="BackgroundImageFix"/>
<feBlend mode="normal" in="SourceGraphic" in2="BackgroundImageFix" result="shape"/>
<feGaussianBlur stdDeviation="0.95" result="effect1_foregroundBlur_1024_18274"/>
</filter>
<filter id="filter5_d_1024_18274" x="250.585" y="55.0137" width="120.619" height="251.244" filterUnits="userSpaceOnUse" color-interpolation-filters="sRGB">
<feFlood flood-opacity="0" result="BackgroundImageFix"/>
<feColorMatrix in="SourceAlpha" type="matrix" values="0 0 0 0 0 0 0 0 0 0 0 0 0 0 0 0 0 0 127 0" result="hardAlpha"/>
<feOffset dx="-2" dy="2"/>
<feGaussianBlur stdDeviation="2.75"/>
<feComposite in2="hardAlpha" operator="out"/>
<feColorMatrix type="matrix" values="0 0 0 0 0 0 0 0 0 0 0 0 0 0 0 0 0 0 0.25 0"/>
<feBlend mode="normal" in2="BackgroundImageFix" result="effect1_dropShadow_1024_18274"/>
<feBlend mode="normal" in="SourceGraphic" in2="effect1_dropShadow_1024_18274" result="shape"/>
</filter>
<filter id="filter6_d_1024_18274" x="84.9" y="102.9" width="354.2" height="196.286" filterUnits="userSpaceOnUse" color-interpolation-filters="sRGB">
<feFlood flood-opacity="0" result="BackgroundImageFix"/>
<feColorMatrix in="SourceAlpha" type="matrix" values="0 0 0 0 0 0 0 0 0 0 0 0 0 0 0 0 0 0 127 0" result="hardAlpha"/>
<feOffset dx="-8" dy="13"/>
<feGaussianBlur stdDeviation="8.55"/>
<feComposite in2="hardAlpha" operator="out"/>
<feColorMatrix type="matrix" values="0 0 0 0 0.203134 0 0 0 0 0.187386 0 0 0 0 0.384229 0 0 0 0.25 0"/>
<feBlend mode="normal" in2="BackgroundImageFix" result="effect1_dropShadow_1024_18274"/>
<feBlend mode="normal" in="SourceGraphic" in2="effect1_dropShadow_1024_18274" result="shape"/>
</filter>
<filter id="filter7_d_1024_18274" x="362.1" y="122.1" width="69.8" height="68.8" filterUnits="userSpaceOnUse" color-interpolation-filters="sRGB">
<feFlood flood-opacity="0" result="BackgroundImageFix"/>
<feColorMatrix in="SourceAlpha" type="matrix" values="0 0 0 0 0 0 0 0 0 0 0 0 0 0 0 0 0 0 127 0" result="hardAlpha"/>
<feOffset dx="-10" dy="10"/>
<feGaussianBlur stdDeviation="5.95"/>
<feComposite in2="hardAlpha" operator="out"/>
<feColorMatrix type="matrix" values="0 0 0 0 0.760547 0 0 0 0 0.553789 0 0 0 0 0.437488 0 0 0 0.49 0"/>
<feBlend mode="normal" in2="BackgroundImageFix" result="effect1_dropShadow_1024_18274"/>
<feBlend mode="normal" in="SourceGraphic" in2="effect1_dropShadow_1024_18274" result="shape"/>
</filter>
<filter id="filter8_f_1024_18274" x="393.8" y="123.8" width="43.4" height="42.4" filterUnits="userSpaceOnUse" color-interpolation-filters="sRGB">
<feFlood flood-opacity="0" result="BackgroundImageFix"/>
<feBlend mode="normal" in="SourceGraphic" in2="BackgroundImageFix" result="shape"/>
<feGaussianBlur stdDeviation="7.6" result="effect1_foregroundBlur_1024_18274"/>
</filter>
<filter id="filter9_f_1024_18274" x="106.435" y="194.27" width="89.8078" height="77.2668" filterUnits="userSpaceOnUse" color-interpolation-filters="sRGB">
<feFlood flood-opacity="0" result="BackgroundImageFix"/>
<feBlend mode="normal" in="SourceGraphic" in2="BackgroundImageFix" result="shape"/>
<feGaussianBlur stdDeviation="3.2" result="effect1_foregroundBlur_1024_18274"/>
</filter>
<filter id="filter10_f_1024_18274" x="243.41" y="107.983" width="90.5246" height="115.648" filterUnits="userSpaceOnUse" color-interpolation-filters="sRGB">
<feFlood flood-opacity="0" result="BackgroundImageFix"/>
<feBlend mode="normal" in="SourceGraphic" in2="BackgroundImageFix" result="shape"/>
<feGaussianBlur stdDeviation="3.2" result="effect1_foregroundBlur_1024_18274"/>
</filter>
<filter id="filter11_f_1024_18274" x="179.918" y="196.006" width="78.5588" height="26.8703" filterUnits="userSpaceOnUse" color-interpolation-filters="sRGB">
<feFlood flood-opacity="0" result="BackgroundImageFix"/>
<feBlend mode="normal" in="SourceGraphic" in2="BackgroundImageFix" result="shape"/>
<feGaussianBlur stdDeviation="3.2" result="effect1_foregroundBlur_1024_18274"/>
</filter>
<filter id="filter12_f_1024_18274" x="321.026" y="104.026" width="74.5363" height="40.3117" filterUnits="userSpaceOnUse" color-interpolation-filters="sRGB">
<feFlood flood-opacity="0" result="BackgroundImageFix"/>
<feBlend mode="normal" in="SourceGraphic" in2="BackgroundImageFix" result="shape"/>
<feGaussianBlur stdDeviation="3.2" result="effect1_foregroundBlur_1024_18274"/>
</filter>
<filter id="filter13_f_1024_18274" x="323.526" y="113.526" width="71.5363" height="37.3117" filterUnits="userSpaceOnUse" color-interpolation-filters="sRGB">
<feFlood flood-opacity="0" result="BackgroundImageFix"/>
<feBlend mode="normal" in="SourceGraphic" in2="BackgroundImageFix" result="shape"/>
<feGaussianBlur stdDeviation="2.45" result="effect1_foregroundBlur_1024_18274"/>
</filter>
<filter id="filter14_f_1024_18274" x="250.811" y="116.178" width="82.8068" height="108.583" filterUnits="userSpaceOnUse" color-interpolation-filters="sRGB">
<feFlood flood-opacity="0" result="BackgroundImageFix"/>
<feBlend mode="normal" in="SourceGraphic" in2="BackgroundImageFix" result="shape"/>
<feGaussianBlur stdDeviation="2.45" result="effect1_foregroundBlur_1024_18274"/>
</filter>
<filter id="filter15_f_1024_18274" x="182.241" y="204.241" width="76.9563" height="22.7102" filterUnits="userSpaceOnUse" color-interpolation-filters="sRGB">
<feFlood flood-opacity="0" result="BackgroundImageFix"/>
<feBlend mode="normal" in="SourceGraphic" in2="BackgroundImageFix" result="shape"/>
<feGaussianBlur stdDeviation="2.45" result="effect1_foregroundBlur_1024_18274"/>
</filter>
<filter id="filter16_f_1024_18274" x="112.175" y="203.868" width="80.5041" height="70.1184" filterUnits="userSpaceOnUse" color-interpolation-filters="sRGB">
<feFlood flood-opacity="0" result="BackgroundImageFix"/>
<feBlend mode="normal" in="SourceGraphic" in2="BackgroundImageFix" result="shape"/>
<feGaussianBlur stdDeviation="2.45" result="effect1_foregroundBlur_1024_18274"/>
</filter>
<linearGradient id="paint0_linear_1024_18274" x1="54" y1="56.5" x2="494" y2="338" gradientUnits="userSpaceOnUse">
<stop stop-color="#A6A3A3"/>
<stop offset="0.260417" stop-color="#DBDADC"/>
<stop offset="1" stop-color="#BEB9B8"/>
</linearGradient>
<linearGradient id="paint1_linear_1024_18274" x1="127" y1="138" x2="460" y2="262" gradientUnits="userSpaceOnUse">
<stop stop-color="#E0E2E6"/>
<stop offset="1" stop-color="#DFE1E6"/>
</linearGradient>
<linearGradient id="paint2_linear_1024_18274" x1="154.077" y1="53.2537" x2="153.773" y2="69.819" gradientUnits="userSpaceOnUse">
<stop stop-color="white" stop-opacity="0.41"/>
<stop offset="0.317708" stop-color="#E5D8B2" stop-opacity="0"/>
<stop offset="1" stop-color="white" stop-opacity="0.67"/>
</linearGradient>
<linearGradient id="paint3_linear_1024_18274" x1="149.796" y1="50" x2="149.796" y2="67.926" gradientUnits="userSpaceOnUse">
<stop stop-color="#E3CA95"/>
<stop offset="0.317708" stop-color="#E5D8B2"/>
<stop offset="1" stop-color="#E3C995"/>
</linearGradient>
<linearGradient id="paint4_linear_1024_18274" x1="164.404" y1="50.0002" x2="164.245" y2="68.5602" gradientUnits="userSpaceOnUse">
<stop stop-color="#DAAF81" stop-opacity="0.64"/>
<stop offset="0.317708" stop-color="#E5D8B2" stop-opacity="0"/>
<stop offset="0.828125" stop-color="#C7B185"/>
<stop offset="1" stop-color="#D7C69E" stop-opacity="0.456821"/>
</linearGradient>
<linearGradient id="paint5_linear_1024_18274" x1="90.425" y1="59.872" x2="212.12" y2="65.0917" gradientUnits="userSpaceOnUse">
<stop stop-color="#DAAF81" stop-opacity="0.64"/>
<stop offset="0.317708" stop-color="#E5D8B2" stop-opacity="0"/>
<stop offset="1" stop-color="#E3C996"/>
</linearGradient>
<linearGradient id="paint6_linear_1024_18274" x1="152.747" y1="4.07391" x2="152.555" y2="14.564" gradientUnits="userSpaceOnUse">
<stop stop-color="white" stop-opacity="0.41"/>
<stop offset="0.317708" stop-color="#E5D8B2" stop-opacity="0"/>
<stop offset="1" stop-color="white" stop-opacity="0.67"/>
</linearGradient>
<linearGradient id="paint7_linear_1024_18274" x1="150.042" y1="2.01367" x2="150.042" y2="13.3655" gradientUnits="userSpaceOnUse">
<stop stop-color="#CA768A"/>
<stop offset="0.317708" stop-color="#EAB9B9" stop-opacity="0.01"/>
<stop offset="1" stop-color="#CC88E3"/>
</linearGradient>
<linearGradient id="paint8_linear_1024_18274" x1="159.293" y1="2.01381" x2="159.192" y2="13.7671" gradientUnits="userSpaceOnUse">
<stop stop-color="#DAAF81" stop-opacity="0.64"/>
<stop offset="0.828125" stop-color="#FF8484" stop-opacity="0.69"/>
<stop offset="1" stop-color="#D7C69E" stop-opacity="0.456821"/>
</linearGradient>
<linearGradient id="paint9_linear_1024_18274" x1="112.445" y1="8.26519" x2="189.51" y2="11.5706" gradientUnits="userSpaceOnUse">
<stop stop-color="#D59BA6" stop-opacity="0.64"/>
<stop offset="0.317708" stop-color="#E5BBB2" stop-opacity="0"/>
<stop offset="1" stop-color="#EA8E9E" stop-opacity="0.38"/>
</linearGradient>
<linearGradient id="paint10_linear_1024_18274" x1="313" y1="57" x2="313" y2="298.5" gradientUnits="userSpaceOnUse">
<stop stop-color="#CFD0E4"/>
<stop offset="1" stop-color="#B1AADD" stop-opacity="0.57"/>
</linearGradient>
<linearGradient id="paint11_linear_1024_18274" x1="313" y1="57" x2="313" y2="298.5" gradientUnits="userSpaceOnUse">
<stop stop-color="#E2E4E8"/>
<stop offset="1" stop-color="#A4A1CD"/>
</linearGradient>
<linearGradient id="paint12_linear_1024_18274" x1="413.21" y1="124" x2="405.941" y2="178.043" gradientUnits="userSpaceOnUse">
<stop stop-color="#E6D7A6"/>
<stop offset="0.677083" stop-color="#E1BE8D"/>
<stop offset="0.908687" stop-color="#E3C995"/>
</linearGradient>
<linearGradient id="paint13_linear_1024_18274" x1="399" y1="127" x2="464.5" y2="134" gradientUnits="userSpaceOnUse">
<stop stop-color="#909090" stop-opacity="0.15"/>
<stop offset="0.242359" stop-color="#676767" stop-opacity="0"/>
</linearGradient>
<linearGradient id="paint14_linear_1024_18274" x1="387" y1="138" x2="404.576" y2="142.715" gradientUnits="userSpaceOnUse">
<stop stop-color="#C97A01" stop-opacity="0.37"/>
<stop offset="1" stop-color="#AE9877" stop-opacity="0"/>
</linearGradient>
<linearGradient id="paint15_linear_1024_18274" x1="252.204" y1="107" x2="337" y2="297.5" gradientUnits="userSpaceOnUse">
<stop stop-color="#8983EE"/>
<stop offset="0.709532" stop-color="#ADAEF0"/>
<stop offset="1" stop-color="#8983EE"/>
</linearGradient>
<clipPath id="clip0_1024_18274">
<rect x="384" y="124" width="46" height="45" rx="22.5" fill="white"/>
</clipPath>
</defs>
</svg>
