<svg width="142" height="121" viewBox="0 0 142 121" fill="none" xmlns="http://www.w3.org/2000/svg">
<path d="M82.8802 19.2734L70.0848 41.5712H44.4941L57.2895 19.2734H82.8802Z" fill="#785FBB"/>
<path d="M82.8802 66.0038H57.2895L44.4941 43.7061H70.0848L82.8802 66.0038Z" fill="#544385"/>
<path d="M90.3157 55.1736L84.7148 64.9336L71.919 42.6364L77.3437 33.1835L90.3157 55.1736Z" fill="#B2A2E0"/>
<path d="M97.5055 42.6446L91.5246 53.0666L78.5526 31.0765L84.7101 20.3469L97.5055 42.6446Z" fill="#DED2FF"/>
<path d="M54.0307 101.085V82.7262H58.4911V101.085H54.0307Z" fill="#544385"/>
<path d="M118.993 91.3358C118.993 92.7875 118.742 94.1145 118.241 95.3155C117.739 96.5166 117.043 97.5461 116.153 98.4013C115.263 99.2565 114.204 99.9186 112.976 100.385C111.748 100.852 110.416 101.085 108.982 101.085C107.547 101.085 106.22 100.852 105.001 100.385C103.783 99.9186 102.728 99.2578 101.837 98.4013C100.947 97.5461 100.251 96.5166 99.75 95.3155C99.2486 94.1145 98.9979 92.7875 98.9979 91.3358C98.9979 89.8841 99.2486 88.5396 99.75 87.356C100.251 86.1724 100.947 85.1643 101.837 84.3346C102.728 83.5049 103.783 82.8655 105.001 82.4164C106.22 81.9674 107.547 81.7422 108.982 81.7422C110.416 81.7422 111.748 81.9674 112.976 82.4164C114.203 82.8668 115.262 83.5049 116.153 84.3346C117.043 85.1643 117.739 86.171 118.241 87.356C118.742 88.5396 118.993 89.8666 118.993 91.3358ZM114.247 91.3358C114.247 90.5409 114.117 89.7969 113.858 89.1053C113.599 88.4136 113.24 87.8211 112.781 87.3292C112.323 86.8359 111.771 86.4472 111.122 86.1616C110.473 85.8761 109.76 85.734 108.982 85.734C108.204 85.734 107.495 85.8761 106.856 86.1616C106.216 86.4472 105.662 86.8359 105.196 87.3292C104.729 87.8211 104.37 88.4136 104.119 89.1053C103.869 89.7969 103.744 90.5409 103.744 91.3358C103.744 92.1307 103.874 92.9309 104.133 93.6306C104.391 94.3303 104.751 94.9308 105.209 95.4322C105.668 95.9335 106.216 96.3263 106.856 96.6118C107.495 96.8973 108.204 97.0394 108.982 97.0394C109.76 97.0394 110.469 96.8973 111.108 96.6118C111.748 96.3263 112.301 95.9335 112.768 95.4322C113.235 94.9308 113.598 94.3303 113.857 93.6306C114.115 92.9309 114.247 92.1655 114.247 91.3358Z" fill="#544385"/>
<path d="M40.406 93.9269L42.7401 87.6269L45.0219 93.9269H45.0005L46.6106 98.4134L47.6671 101.084H52.5941L44.9697 82.7262H40.6647L32.9626 101.084H37.7863L38.7851 98.4134" fill="#544385"/>
<path d="M18.9734 93.7983H22.3519L26.3391 101.085H31.5261L26.7279 93.2286C27.9211 92.8653 28.8542 92.2608 29.5285 91.4136C30.2029 90.5665 30.5394 89.5209 30.5394 88.2756C30.5394 87.222 30.341 86.34 29.9428 85.6309C29.5446 84.9218 29.0137 84.3521 28.3474 83.9192C27.6811 83.4875 26.929 83.1806 26.091 82.9983C25.2518 82.8173 24.3924 82.7262 23.5102 82.7262H18.9721V86.3038H23.1845C23.5143 86.3038 23.8575 86.3293 24.2141 86.3816C24.5707 86.4338 24.8911 86.5331 25.178 86.6792C25.4649 86.8266 25.6996 87.033 25.8819 87.3011C26.0642 87.5692 26.1554 87.9191 26.1554 88.3507C26.1554 88.8172 26.0548 89.1979 25.8551 89.4914C25.6553 89.785 25.3993 90.0102 25.0869 90.1656C24.7745 90.3211 24.4273 90.4297 24.0452 90.49C23.6631 90.5504 23.289 90.5812 22.9244 90.5812H18.9721" fill="#544385"/>
<path d="M16.7629 94.0701C16.5645 93.5862 16.2964 93.1626 15.9585 92.7993C15.622 92.4361 15.2239 92.1385 14.7653 91.9053C14.3068 91.672 13.8188 91.5125 13.3 91.4254V91.3731C14.1982 91.0795 14.9249 90.5997 15.4786 89.9335C16.0323 89.2686 16.3085 88.4255 16.3085 87.4054C16.3085 86.4724 16.1181 85.703 15.7373 85.0971C15.3566 84.4926 14.8646 84.0127 14.2586 83.6575C13.6526 83.3036 12.9782 83.053 12.2355 82.9055C11.4914 82.7594 10.7661 82.6857 10.0569 82.6857H5.82169V86.2124H9.20154C10.1346 86.2124 10.8398 86.3545 11.3158 86.64C11.7917 86.9255 12.029 87.3786 12.029 88.0019C12.029 88.6587 11.7998 89.156 11.3413 89.4925C10.8827 89.8289 10.2392 89.9978 9.40934 89.9978H5.82303V93.2645H9.4871C10.4376 93.2645 11.1991 93.4119 11.7689 93.7055C12.3401 93.999 12.6243 94.5272 12.6243 95.2872C12.6243 95.7376 12.5291 96.1035 12.3387 96.3891C12.1483 96.6746 11.9017 96.8944 11.6 97.0499C11.297 97.2054 10.9605 97.314 10.5891 97.3743C10.2178 97.4346 9.85847 97.4654 9.51257 97.4654H5.82169V101.043H10.0569C10.9391 101.043 11.7984 100.952 12.6377 100.771C13.4756 100.59 14.2237 100.291 14.8806 99.8769C15.5376 99.4614 16.0645 98.9131 16.4626 98.2308C16.8608 97.5485 17.0592 96.7054 17.0592 95.7027C17.0592 95.0982 16.96 94.554 16.7616 94.0688L16.7629 94.0701Z" fill="#544385"/>
<path d="M1.80859 101.085H5.05035V82.7266H1.80859V101.085Z" fill="#544385"/>
<path d="M96.8102 94.0701C96.6118 93.5862 96.3436 93.1626 96.0058 92.7993C95.6693 92.4361 95.2711 92.1385 94.8126 91.9053C94.3541 91.672 93.8661 91.5125 93.3472 91.4254V91.3731C94.2455 91.0795 94.9721 90.5997 95.5258 89.9335C96.0795 89.2686 96.3557 88.4255 96.3557 87.4054C96.3557 86.4724 96.1653 85.703 95.7846 85.0971C95.4038 84.4926 94.9118 84.0127 94.3058 83.6575C93.6998 83.3036 93.0255 83.053 92.2827 82.9055C91.5387 82.7594 90.8134 82.6857 90.1041 82.6857H85.8689V86.2124H89.2488C90.1819 86.2124 90.8871 86.3545 91.363 86.64C91.839 86.9255 92.0763 87.3786 92.0763 88.0019C92.0763 88.6587 91.847 89.156 91.3885 89.4925C90.93 89.8289 90.2865 89.9978 89.4566 89.9978H85.8703V93.2645H89.5343C90.4849 93.2645 91.2464 93.4119 91.8162 93.7055C92.3873 93.999 92.6715 94.5272 92.6715 95.2872C92.6715 95.7376 92.5763 96.1035 92.386 96.3891C92.1956 96.6746 91.9489 96.8944 91.6472 97.0499C91.3443 97.2054 91.0077 97.314 90.6364 97.3743C90.265 97.4346 89.9057 97.4654 89.5598 97.4654H85.8689V101.043H90.1041C90.9863 101.043 91.8457 100.952 92.6849 100.771C93.5229 100.59 94.271 100.291 94.9279 99.8769C95.5848 99.4614 96.1117 98.9131 96.5099 98.2308C96.9081 97.5485 97.1065 96.7054 97.1065 95.7027C97.1065 95.0982 97.0073 94.554 96.8088 94.0688L96.8102 94.0701Z" fill="#544385"/>
<path d="M81.8538 101.085H85.0955V82.7266H81.8538V101.085Z" fill="#544385"/>
<path d="M65.7006 89.2776L73.3156 101.084H78.3458V82.7389H74.0409L74.1455 94.7064H74.0677L65.7006 82.7268V89.2776Z" fill="#544385"/>
<path d="M65.7016 82.7935H61.3498V101.064H65.7016V82.7935Z" fill="#544385"/>
<path d="M139.265 82.7268H133.512L129.754 88.4304L132.79 91.3874L139.265 82.7268Z" fill="#544385"/>
<path d="M125.937 82.7268H119.983L126.574 91.3874L129.754 88.4304L125.937 82.7268Z" fill="#544385"/>
<path d="M119.404 101.083H125.301L129.609 94.6011L126.574 91.3874L119.404 101.083Z" fill="#544385"/>
<path d="M132.79 91.3874L129.61 94.6011L134.091 101.083H140.191L132.79 91.3874Z" fill="#544385"/>
</svg>
