<svg width="71" height="23" viewBox="0 0 71 23" fill="none" xmlns="http://www.w3.org/2000/svg">
<path d="M18.5592 0L12.6682 10.2657L12.3728 10.7807H0L5.89097 0.51494L6.18639 0H18.5592Z" fill="#785FBB"/>
<path d="M18.5592 22.5971H6.18639L5.89097 22.0821L0 11.8164H12.3728L12.6682 12.3313L18.5592 22.5971Z" fill="#544385"/>
<path d="M22.1543 17.3585V17.3587L19.4464 22.0773L13.5554 11.8116L13.2598 11.2969L13.5554 10.782L15.8826 6.72656L18.2747 10.782L18.8821 11.8116L22.1543 17.3585Z" fill="#B2A2E0"/>
<path d="M25.6303 11.2963L25.3349 11.811L22.7386 16.3352L20.0699 11.811L19.4625 10.7814L16.4668 5.70324L19.4439 0.515625L25.3349 10.7814L25.6303 11.2963Z" fill="#DED2FF"/>
<path d="M49.536 16.9762C49.536 17.7816 49.3993 18.517 49.1264 19.1832C48.853 19.8495 48.4741 20.4199 47.9892 20.8942C47.5039 21.3688 46.9269 21.7353 46.2582 21.9941C45.5891 22.2529 44.8641 22.3825 44.0821 22.3825C43.3002 22.3825 42.5772 22.2529 41.9133 21.9941C41.2493 21.7353 40.6747 21.3688 40.1894 20.8942C39.7042 20.4196 39.325 19.8495 39.0521 19.1832C38.779 18.517 38.6426 17.7812 38.6426 16.9762C38.6426 16.1712 38.779 15.4259 39.0521 14.7692C39.3253 14.1129 39.7042 13.5544 40.1894 13.0941C40.6744 12.6341 41.249 12.2795 41.9133 12.0299C42.5772 11.7807 43.3002 11.6562 44.0821 11.6562C44.8641 11.6562 45.5891 11.781 46.2582 12.0299C46.9269 12.2792 47.5039 12.6338 47.9892 13.0941C48.4741 13.554 48.8533 14.1125 49.1264 14.7692C49.3996 15.4259 49.536 16.1617 49.536 16.9762ZM46.9504 16.9762C46.9504 16.5354 46.8798 16.1231 46.7386 15.7396C46.5975 15.3563 46.4017 15.0276 46.1524 14.7545C45.9028 14.4814 45.6014 14.2656 45.2481 14.1074C44.8948 13.9492 44.5064 13.8701 44.0825 13.8701C43.6586 13.8701 43.2722 13.9492 42.924 14.1074C42.5755 14.2656 42.2741 14.4814 42.0197 14.7545C41.7653 15.0276 41.5699 15.356 41.4335 15.7396C41.2967 16.1231 41.2285 16.5354 41.2285 16.9762C41.2285 17.4171 41.2991 17.8603 41.4403 18.2487C41.5815 18.637 41.7769 18.9701 42.0265 19.248C42.2758 19.5262 42.5752 19.7441 42.9237 19.9023C43.2722 20.0605 43.6582 20.1396 44.0821 20.1396C44.506 20.1396 44.892 20.0605 45.2409 19.9023C45.5894 19.7441 45.8909 19.5262 46.1453 19.248C46.3997 18.9701 46.5975 18.637 46.7386 18.2487C46.8798 17.8603 46.9504 17.4362 46.9504 16.9762Z" fill="#544385"/>
<path d="M37.4486 18.4915C37.3401 18.2232 37.1942 17.9883 37.0107 17.7871C36.8269 17.5859 36.6103 17.4206 36.3607 17.291C36.1111 17.1614 35.8451 17.0731 35.5624 17.025V16.9964C36.0521 16.8334 36.4477 16.5675 36.7491 16.1986C37.0506 15.8296 37.2013 15.3622 37.2013 14.7965C37.2013 14.279 37.0977 13.8524 36.8903 13.5169C36.683 13.1814 36.4146 12.9155 36.0848 12.7187C35.7551 12.5224 35.3878 12.3832 34.9827 12.3018C34.5775 12.2203 34.182 12.1797 33.7959 12.1797H31.4886V14.1351H33.3298C33.8386 14.1351 34.2222 14.2142 34.4814 14.3724C34.7402 14.5306 34.8698 14.7822 34.8698 15.1273C34.8698 15.4918 34.745 15.7673 34.4954 15.9541C34.2457 16.1409 33.8948 16.2344 33.4426 16.2344H31.4883V18.0462H33.4849C34.0029 18.0462 34.4176 18.1277 34.7283 18.2907C35.0393 18.4537 35.1944 18.7462 35.1944 19.1676C35.1944 19.4169 35.1426 19.6204 35.0389 19.7786C34.9353 19.9368 34.8009 20.0589 34.6362 20.1452C34.4712 20.2314 34.2877 20.2914 34.0851 20.3248C33.8826 20.3586 33.6872 20.3753 33.4989 20.3753H31.4883V22.3597H33.7956C34.2761 22.3597 34.7443 22.3092 35.2016 22.2086C35.6582 22.108 36.0657 21.9427 36.4238 21.7125C36.7815 21.4824 37.069 21.1783 37.2856 20.7995C37.5021 20.421 37.6106 19.9535 37.6106 19.3974C37.6106 19.0619 37.5563 18.7602 37.4482 18.4915H37.4486Z" fill="#544385"/>
<path d="M29.3003 22.3828H31.0664V12.2028H29.3003V22.3828Z" fill="#544385"/>
<path d="M57.752 10.4105V0.230469H60.182V10.4105H57.752Z" fill="#544385"/>
<path d="M50.3285 6.44204L51.6001 2.9479L52.8438 6.44204H52.8319L53.709 8.92933L54.2849 10.4105H56.9694L52.8155 0.230469H50.47L46.2734 10.4105H48.9016L49.4459 8.92933" fill="#544385"/>
<path d="M38.6523 6.3701H40.4932L42.6651 10.4105H45.4911L42.8772 6.05369C43.5272 5.85252 44.036 5.51702 44.4032 5.04718C44.7705 4.57768 44.9543 3.99771 44.9543 3.30727C44.9543 2.72287 44.8459 2.23394 44.6293 1.84081C44.4124 1.44803 44.1229 1.13162 43.7604 0.891924C43.3976 0.652572 42.988 0.482093 42.5311 0.381511C42.0741 0.280928 41.6055 0.230469 41.1251 0.230469H38.6527V2.21484H40.9477C41.1274 2.21484 41.3143 2.22916 41.5084 2.2578C41.7024 2.28644 41.8777 2.34168 42.0339 2.42317C42.19 2.50466 42.3176 2.6199 42.4172 2.76822C42.5164 2.91688 42.5665 3.11122 42.5665 3.35058C42.5665 3.60936 42.512 3.82041 42.4032 3.98305C42.2944 4.14603 42.1549 4.27082 41.9844 4.35708C41.8139 4.44334 41.6246 4.50335 41.4166 4.53677C41.2083 4.57052 41.0047 4.58723 40.8059 4.58723H38.6527" fill="#544385"/>
<path d="M37.4486 6.51885C37.3401 6.25051 37.1942 6.01559 37.0107 5.81443C36.8269 5.61326 36.6103 5.4479 36.3607 5.31834C36.1111 5.18877 35.8451 5.10046 35.5624 5.05239V5.02375C36.0521 4.86077 36.4477 4.59482 36.7491 4.2259C37.0506 3.85699 37.2013 3.38953 37.2013 2.82388C37.2013 2.30631 37.0977 1.87977 36.8903 1.54427C36.683 1.20877 36.4146 0.942817 36.0848 0.746084C35.7551 0.549692 35.3878 0.410582 34.9827 0.329093C34.5775 0.247604 34.182 0.207031 33.7959 0.207031H31.4886V2.16243H33.3298C33.8386 2.16243 34.2222 2.24153 34.4814 2.39973C34.7402 2.55793 34.8698 2.80956 34.8698 3.15461C34.8698 3.5191 34.745 3.79459 34.4954 3.98144C34.2457 4.16828 33.8948 4.26171 33.4426 4.26171H31.4883V6.07355H33.4849C34.0029 6.07355 34.4176 6.15504 34.7283 6.31802C35.0393 6.481 35.1944 6.77354 35.1944 7.19497C35.1944 7.44421 35.1426 7.64776 35.0389 7.80596C34.9353 7.96417 34.8009 8.08623 34.6362 8.17249C34.4712 8.25876 34.2877 8.31877 34.0851 8.35218C33.8826 8.38593 33.6872 8.40264 33.4989 8.40264H31.4883V10.387H33.7956C34.2761 10.387 34.7443 10.3366 35.2016 10.236C35.6582 10.1354 36.0657 9.97002 36.4238 9.73988C36.7815 9.50973 37.069 9.2056 37.2856 8.82679C37.5021 8.44833 37.6106 7.98087 37.6106 7.42477C37.6106 7.08927 37.5563 6.78752 37.4482 6.51885H37.4486Z" fill="#544385"/>
<path d="M29.3003 10.4102H31.0664V0.230172H29.3003V10.4102Z" fill="#544385"/>
<path d="M64.1094 3.86728L68.2575 10.4144H70.9986V0.241192H68.6531L68.7097 6.87726H68.6674L64.1094 0.234375V3.86728Z" fill="#544385"/>
<path d="M64.1094 0.269531H61.7383V10.4011H64.1094V0.269531Z" fill="#544385"/>
<path d="M60.5743 12.207H57.44L55.3926 15.3701L57.0462 17.0094L60.5743 12.207Z" fill="#544385"/>
<path d="M53.3167 12.207H50.0723L53.6632 17.0094L55.3955 15.3701L53.3167 12.207Z" fill="#544385"/>
<path d="M49.7559 22.3893H52.9689L55.3155 18.7946L53.6619 17.0117L49.7559 22.3893Z" fill="#544385"/>
<path d="M57.0488 17.0117L55.3164 18.7946L57.7577 22.3893H61.081L57.0488 17.0117Z" fill="#544385"/>
</svg>
