<svg width="204" height="29" viewBox="0 0 204 29" fill="none" xmlns="http://www.w3.org/2000/svg">
<path fill-rule="evenodd" clip-rule="evenodd" d="M23.9413 0.189453H8.41052L0.5 13.9074H16.0308L23.9413 0.189453ZM0.792205 15.5988H16.1579L23.7762 28.8099H8.41052L0.792205 15.5988ZM28.4587 22.6634L25.3204 28.1055L17.5573 14.6426L20.6956 9.20056L28.4587 22.6634ZM29.4343 20.972L33.1668 14.4997L25.403 1.03679L21.6705 7.50917L29.4336 20.972H29.4343Z" fill="#FAFAFA"/>
<path d="M103.26 25.7523V4.39258H108.449V25.7517H103.26V25.7523Z" fill="#FAFAFA"/>
<path d="M178.84 14.4082C178.84 16.0977 178.548 17.6415 177.965 19.039C177.381 20.4371 176.571 21.6332 175.536 22.6291C174.5 23.6244 173.268 24.3942 171.839 24.9372C170.411 25.4802 168.862 25.7518 167.193 25.7518C165.523 25.7518 163.979 25.4802 162.561 24.9372C161.143 24.3942 159.916 23.625 158.88 22.6291C157.844 21.6338 157.034 20.4371 156.451 19.039C155.867 17.6415 155.576 16.0977 155.576 14.4082C155.576 12.7187 155.867 11.1549 156.451 9.77744C157.034 8.39994 157.844 7.22803 158.88 6.26293C159.916 5.29784 161.143 4.55345 162.561 4.03039C163.979 3.50793 165.523 3.24609 167.193 3.24609C168.863 3.24609 170.411 3.50793 171.839 4.03039C173.267 4.55345 174.499 5.29723 175.536 6.26293C176.572 7.22803 177.381 8.39994 177.965 9.77744C178.548 11.1555 178.84 12.6993 178.84 14.4082ZM173.318 14.4082C173.318 13.4836 173.167 12.6183 172.866 11.8135C172.564 11.0092 172.146 10.3199 171.614 9.74721C171.08 9.17395 170.437 8.72164 169.683 8.38966C168.929 8.05768 168.099 7.89199 167.193 7.89199C166.288 7.89199 165.463 8.05768 164.719 8.38966C163.975 8.72164 163.331 9.17395 162.788 9.74721C162.245 10.3205 161.827 11.0092 161.536 11.8135C161.244 12.6183 161.099 13.483 161.099 14.4082C161.099 15.3334 161.249 16.2634 161.551 17.078C161.853 17.8925 162.27 18.5915 162.803 19.1745C163.336 19.758 163.975 20.2151 164.719 20.5471C165.463 20.8791 166.288 21.0448 167.193 21.0448C168.099 21.0448 168.923 20.8791 169.668 20.5471C170.411 20.2151 171.056 19.758 171.599 19.1745C172.142 18.5915 172.564 17.8925 172.866 17.078C173.168 16.2634 173.318 15.3733 173.318 14.4082Z" fill="#FAFAFA"/>
<path d="M87.4059 17.4256L90.1214 10.0949L92.7771 17.4256H92.7523L94.6248 22.6448L95.8544 25.7523H101.588L92.7167 4.39258H87.7077L78.7463 25.7523H84.3583L85.5213 22.6448" fill="#FAFAFA"/>
<path d="M62.4707 17.2741H66.4013L71.0395 25.7514H77.0743L71.4919 16.6101C72.88 16.1875 73.9662 15.4842 74.7506 14.4985C75.535 13.5135 75.9276 12.2962 75.9276 10.848C75.9276 9.62164 75.6959 8.59546 75.2332 7.77066C74.77 6.94645 74.1519 6.28249 73.3777 5.77938C72.603 5.27688 71.7278 4.9195 70.7529 4.70846C69.7767 4.49742 68.7764 4.3916 67.7506 4.3916H62.4707V8.55495H67.372C67.7555 8.55495 68.1552 8.58518 68.5695 8.64565C68.9838 8.70612 69.3582 8.82223 69.6914 8.99275C70.0247 9.16388 70.2975 9.40516 70.5097 9.71658C70.722 10.0286 70.8285 10.4362 70.8285 10.9387C70.8285 11.4817 70.7117 11.9243 70.4795 12.266C70.2473 12.6082 69.9491 12.8695 69.585 13.0503C69.2209 13.2311 68.8169 13.3569 68.3724 13.4276C67.9272 13.4984 67.4924 13.5334 67.0684 13.5334H62.4707" fill="#FAFAFA"/>
<path d="M59.9003 17.5859C59.6687 17.0229 59.3572 16.5301 58.9647 16.1074C58.5721 15.6847 58.1095 15.3382 57.5766 15.0667C57.0432 14.7952 56.4753 14.6096 55.8717 14.5086V14.4481C56.9174 14.1065 57.7623 13.5483 58.4064 12.7737C59.0499 11.9997 59.3717 11.0189 59.3717 9.83246C59.3717 8.74642 59.1497 7.85147 58.7076 7.1476C58.2649 6.44373 57.6916 5.88559 56.9876 5.47319C56.283 5.06139 55.4985 4.76932 54.6343 4.59819C53.7694 4.42766 52.9245 4.3418 52.0996 4.3418H47.1722V8.44468H51.1041C52.1903 8.44468 53.0098 8.61036 53.5632 8.94234C54.116 9.27432 54.393 9.80222 54.393 10.526C54.393 11.2904 54.1263 11.8685 53.5934 12.2609C53.06 12.6534 52.3112 12.8493 51.3454 12.8493H47.1722V16.6504H51.4361C52.5423 16.6504 53.4277 16.8216 54.0912 17.1632C54.7552 17.5055 55.0867 18.1186 55.0867 19.0033C55.0867 19.5264 54.976 19.9533 54.7546 20.2853C54.5333 20.6173 54.2466 20.8736 53.8946 21.0545C53.5426 21.2353 53.1501 21.361 52.7177 21.4318C52.2846 21.5025 51.8679 21.5376 51.4657 21.5376H47.1716V25.701H52.099C53.1247 25.701 54.125 25.5951 55.1012 25.3841C56.0767 25.1731 56.9464 24.826 57.7115 24.3434C58.476 23.8609 59.0893 23.2223 59.5519 22.4277C60.0146 21.6331 60.2462 20.6529 60.2462 19.4865C60.2462 18.7826 60.1301 18.1489 59.8991 17.5859H59.9003Z" fill="#FAFAFA"/>
<path d="M42.4999 25.749H46.2715V4.38987H42.4999V25.749Z" fill="#FAFAFA"/>
<path d="M153.031 17.5859C152.799 17.0229 152.488 16.5301 152.095 16.1074C151.703 15.6847 151.24 15.3382 150.707 15.0667C150.174 14.7952 149.606 14.6096 149.002 14.5086V14.4481C150.048 14.1065 150.893 13.5483 151.537 12.7737C152.181 11.9997 152.502 11.0189 152.502 9.83246C152.502 8.74642 152.28 7.85147 151.838 7.1476C151.396 6.44373 150.822 5.88559 150.118 5.47319C149.414 5.06139 148.629 4.76932 147.765 4.59819C146.9 4.42766 146.055 4.3418 145.23 4.3418H140.303V8.44468H144.235C145.321 8.44468 146.14 8.61036 146.694 8.94234C147.247 9.27432 147.524 9.80222 147.524 10.526C147.524 11.2904 147.257 11.8685 146.724 12.2609C146.191 12.6534 145.442 12.8493 144.476 12.8493H140.303V16.6504H144.567C145.673 16.6504 146.558 16.8216 147.222 17.1632C147.886 17.5055 148.217 18.1186 148.217 19.0033C148.217 19.5264 148.107 19.9533 147.885 20.2853C147.664 20.6173 147.377 20.8736 147.025 21.0545C146.673 21.2353 146.281 21.361 145.848 21.4318C145.415 21.5025 144.999 21.5376 144.596 21.5376H140.302V25.701H145.23C146.255 25.701 147.256 25.5951 148.232 25.3841C149.207 25.1731 150.077 24.826 150.842 24.3434C151.607 23.8609 152.22 23.2223 152.683 22.4277C153.145 21.6331 153.377 20.6529 153.377 19.4865C153.377 18.7826 153.261 18.1489 153.03 17.5859H153.031Z" fill="#FAFAFA"/>
<path d="M135.631 25.749H139.402V4.38987H135.631V25.749Z" fill="#FAFAFA"/>
<path d="M116.837 12.0154L125.697 25.7523H131.55V4.40709H126.541L126.662 18.3309H126.571L116.837 4.39258V12.0154Z" fill="#FAFAFA"/>
<path d="M116.838 4.4707H111.774V25.7283H116.838V4.4707Z" fill="#FAFAFA"/>
<path d="M202.424 4.39258H195.731L191.359 11.0297L194.89 14.4693L202.424 4.39258Z" fill="#FAFAFA"/>
<path d="M186.919 4.39258H179.99L187.659 14.4693L191.359 11.0297L186.919 4.39258Z" fill="#FAFAFA"/>
<path d="M179.317 25.7518H186.178L191.19 18.2094L187.658 14.4688L179.317 25.7518Z" fill="#FAFAFA"/>
<path d="M194.89 14.4688L191.19 18.2094L196.403 25.7518H203.5L194.89 14.4688Z" fill="#FAFAFA"/>
</svg>
