<svg width="10" height="11" viewBox="0 0 10 11" fill="none" xmlns="http://www.w3.org/2000/svg">
<path d="M9.26557 6.02734H0V10.8938H9.26557V6.02734Z" fill="#544385"/>
<path d="M4.6314 1.57422L1.69336 3.61499H7.56944L4.6314 1.57422Z" fill="#544385"/>
<path d="M7.56944 3.61328H1.69336V6.32308H7.56944V3.61328Z" fill="#544385"/>
<path d="M4.64258 0.167969L4.63136 2.2396" stroke="#544385" stroke-width="0.362542" stroke-miterlimit="10"/>
<path d="M4.63845 4.28082C5.141 4.28082 5.54839 3.87342 5.54839 3.37088C5.54839 2.86833 5.141 2.46094 4.63845 2.46094C4.13591 2.46094 3.72852 2.86833 3.72852 3.37088C3.72852 3.87342 4.13591 4.28082 4.63845 4.28082Z" fill="white"/>
<path d="M4.56555 8.5625H2.84961V10.2784H4.56555V8.5625Z" fill="white"/>
<path d="M6.36633 8.5625H4.65039V10.2784H6.36633V8.5625Z" fill="white"/>
<path d="M3.40124 5.16797H2.45703V6.11218H3.40124V5.16797Z" fill="white"/>
<path d="M5.11023 5.16797H4.16602V6.11218H5.11023V5.16797Z" fill="white"/>
<path d="M6.8739 5.16797H5.92969V6.11218H6.8739V5.16797Z" fill="white"/>
<path d="M3.40124 6.93359H2.45703V7.8778H3.40124V6.93359Z" fill="white"/>
<path d="M5.11023 6.93359H4.16602V7.8778H5.11023V6.93359Z" fill="white"/>
<path d="M6.8739 6.93359H5.92969V7.8778H6.8739V6.93359Z" fill="white"/>
<path d="M8.48327 6.93359H7.53906V7.8778H8.48327V6.93359Z" fill="white"/>
<path d="M8.48327 8.58594H7.53906V9.53015H8.48327V8.58594Z" fill="white"/>
<path d="M1.70007 6.93359H0.755859V7.8778H1.70007V6.93359Z" fill="white"/>
<path d="M1.70007 8.58594H0.755859V9.53015H1.70007V8.58594Z" fill="white"/>
<path d="M5.19903 0.392554C4.97679 0.372051 4.85495 0.290944 4.80664 0.233854V1.23158C4.9466 1.37154 5.12563 1.38517 5.31727 1.34592C5.58381 1.29133 5.83192 1.12967 6.10303 1.15256C6.23254 1.16349 6.34885 1.19415 6.3939 1.21989V0.127989C6.2799 0.0944586 6.155 0.109581 6.03824 0.146703C5.75706 0.236094 5.49282 0.419659 5.19903 0.392554Z" fill="#544385"/>
</svg>
