<svg width="54" height="30" viewBox="0 0 54 30" fill="none" xmlns="http://www.w3.org/2000/svg">
<g filter="url(#filter0_d_2972_21934)">
<rect x="4.5" y="4.5" width="45" height="21" rx="3.5" stroke="#DFDDB9" shape-rendering="crispEdges"/>
</g>
<path fill-rule="evenodd" clip-rule="evenodd" d="M8 4C5.79086 4 4 5.79086 4 8V22C4 24.2091 5.79086 26 8 26H46C48.2091 26 50 24.2091 50 22V8C50 5.79086 48.2091 4 46 4H8ZM11.1307 11.7273H9.79901V19H10.843V13.7337H10.9105L13.0554 18.9893H13.9219L16.0668 13.7372H16.1342V19H17.1783V11.7273H15.8466L13.5312 17.3807H13.446L11.1307 11.7273ZM19.3709 19V11.7273H18.2736V19H19.3709ZM20.4689 19H22.8233C23.562 19 24.1917 18.8544 24.7125 18.5632C25.2334 18.2696 25.6311 17.8506 25.9057 17.3061C26.1827 16.7616 26.3212 16.1106 26.3212 15.353C26.3212 14.5978 26.1839 13.9503 25.9093 13.4105C25.637 12.8684 25.2452 12.4529 24.7338 12.1641C24.2225 11.8729 23.6105 11.7273 22.8979 11.7273H20.4689V19ZM22.763 18.0412H21.5662V12.6861H22.8304C23.3607 12.6861 23.8046 12.7891 24.1621 12.995C24.5196 13.201 24.7883 13.5028 24.9682 13.9006C25.1505 14.2983 25.2417 14.7824 25.2417 15.353C25.2417 15.9283 25.1505 16.416 24.9682 16.8161C24.7859 17.2138 24.5113 17.518 24.1444 17.7287C23.7774 17.937 23.3169 18.0412 22.763 18.0412ZM27.1857 19H29.5401C30.2788 19 30.9085 18.8544 31.4293 18.5632C31.9502 18.2696 32.3479 17.8506 32.6225 17.3061C32.8995 16.7616 33.038 16.1106 33.038 15.353C33.038 14.5978 32.9007 13.9503 32.6261 13.4105C32.3538 12.8684 31.962 12.4529 31.4506 12.1641C30.9393 11.8729 30.3273 11.7273 29.6147 11.7273H27.1857V19ZM29.4798 18.0412H28.283V12.6861H29.5472C30.0775 12.6861 30.5214 12.7891 30.8789 12.995C31.2364 13.201 31.5051 13.5028 31.685 13.9006C31.8673 14.2983 31.9585 14.7824 31.9585 15.353C31.9585 15.9283 31.8673 16.416 31.685 16.8161C31.5027 17.2138 31.2281 17.518 30.8612 17.7287C30.4942 17.937 30.0337 18.0412 29.4798 18.0412ZM33.9025 11.7273V19H38.2953V18.0554H34.9998V11.7273H33.9025ZM39.0471 11.7273V19H43.6493V18.0554H40.1444V15.8288H43.3688V14.8878H40.1444V12.6719H43.6067V11.7273H39.0471Z" fill="#DFDDB9"/>
<defs>
<filter id="filter0_d_2972_21934" x="0" y="0" width="54" height="30" filterUnits="userSpaceOnUse" color-interpolation-filters="sRGB">
<feFlood flood-opacity="0" result="BackgroundImageFix"/>
<feColorMatrix in="SourceAlpha" type="matrix" values="0 0 0 0 0 0 0 0 0 0 0 0 0 0 0 0 0 0 127 0" result="hardAlpha"/>
<feOffset/>
<feGaussianBlur stdDeviation="2"/>
<feComposite in2="hardAlpha" operator="out"/>
<feColorMatrix type="matrix" values="0 0 0 0 1 0 0 0 0 1 0 0 0 0 1 0 0 0 1 0"/>
<feBlend mode="normal" in2="BackgroundImageFix" result="effect1_dropShadow_2972_21934"/>
<feBlend mode="normal" in="SourceGraphic" in2="effect1_dropShadow_2972_21934" result="shape"/>
</filter>
</defs>
</svg>
