<svg width="54" height="30" viewBox="0 0 54 30" fill="none" xmlns="http://www.w3.org/2000/svg">
<path fill-rule="evenodd" clip-rule="evenodd" d="M8 4C5.79086 4 4 5.79086 4 8V22C4 24.2091 5.79086 26 8 26H46C48.2091 26 50 24.2091 50 22V8C50 5.79086 48.2091 4 46 4H8ZM30.0391 13.397C29.9704 13.1816 29.8781 12.9886 29.7621 12.8182C29.6484 12.6454 29.5123 12.4986 29.3537 12.3778C29.1951 12.2547 29.014 12.1612 28.8104 12.0973C28.6091 12.0334 28.3878 12.0014 28.1463 12.0014C27.7367 12.0014 27.3674 12.1068 27.0384 12.3175C26.7093 12.5282 26.4489 12.8371 26.2571 13.2443C26.0677 13.6491 25.973 14.1451 25.973 14.7322C25.973 15.3217 26.0689 15.8201 26.2607 16.2273C26.4524 16.6345 26.7152 16.9434 27.049 17.1541C27.3828 17.3648 27.7628 17.4702 28.1889 17.4702C28.5843 17.4702 28.9287 17.3897 29.2223 17.2287C29.5182 17.0677 29.7467 16.8404 29.9077 16.5469C30.0637 16.2642 30.1452 15.9339 30.1522 15.5561H28.3558V14.6506H31.2145V15.478C31.2145 16.0888 31.0843 16.6191 30.8239 17.0689C30.5658 17.5163 30.2083 17.862 29.7514 18.1058C29.2969 18.3497 28.776 18.4716 28.1889 18.4716C27.5308 18.4716 26.9531 18.3201 26.456 18.017C25.9612 17.714 25.5753 17.2843 25.2983 16.728C25.0213 16.1693 24.8828 15.5064 24.8828 14.7393C24.8828 14.1593 24.9633 13.6385 25.1243 13.1768C25.2853 12.7152 25.5114 12.3234 25.8026 12.0014C26.0961 11.6771 26.4406 11.4297 26.8359 11.2592C27.2337 11.0864 27.6681 11 28.1392 11C28.5322 11 28.898 11.058 29.2365 11.174C29.5774 11.29 29.8804 11.4545 30.1456 11.6676C30.4131 11.8807 30.6345 12.134 30.8097 12.4276C30.9848 12.7188 31.1032 13.0419 31.1648 13.397H30.0391ZM16 11.0994V18.3722H17.0973V15.201H20.723V18.3722H21.8239V11.0994H20.723V14.2599H17.0973V11.0994H16ZM24.0192 18.3722V11.0994H22.9219V18.3722H24.0192ZM32.1074 11.0994V18.3722H33.2047V15.201H36.8304V18.3722H37.9313V11.0994H36.8304V14.2599H33.2047V11.0994H32.1074Z" fill="#309E4E"/>
<g filter="url(#filter0_d_2972_21936)">
<rect x="4.5" y="4.5" width="45" height="21" rx="3.5" stroke="#309E4E" shape-rendering="crispEdges"/>
</g>
<defs>
<filter id="filter0_d_2972_21936" x="0" y="0" width="54" height="30" filterUnits="userSpaceOnUse" color-interpolation-filters="sRGB">
<feFlood flood-opacity="0" result="BackgroundImageFix"/>
<feColorMatrix in="SourceAlpha" type="matrix" values="0 0 0 0 0 0 0 0 0 0 0 0 0 0 0 0 0 0 127 0" result="hardAlpha"/>
<feOffset/>
<feGaussianBlur stdDeviation="2"/>
<feComposite in2="hardAlpha" operator="out"/>
<feColorMatrix type="matrix" values="0 0 0 0 1 0 0 0 0 1 0 0 0 0 1 0 0 0 1 0"/>
<feBlend mode="normal" in2="BackgroundImageFix" result="effect1_dropShadow_2972_21936"/>
<feBlend mode="normal" in="SourceGraphic" in2="effect1_dropShadow_2972_21936" result="shape"/>
</filter>
</defs>
</svg>
