<svg width="54" height="30" viewBox="0 0 54 30" fill="none" xmlns="http://www.w3.org/2000/svg">
<g filter="url(#filter0_d_2972_21935)">
<rect x="4.5" y="4.5" width="45" height="21" rx="3.5" stroke="#FFD7D7" shape-rendering="crispEdges"/>
</g>
<path fill-rule="evenodd" clip-rule="evenodd" d="M8 4C5.79086 4 4 5.79086 4 8V22C4 24.2091 5.79086 26 8 26H46C48.2091 26 50 24.2091 50 22V8C50 5.79086 48.2091 4 46 4H8ZM16.799 11.7273V19H21.1918V18.0554H17.8963V11.7273H16.799ZM27.5517 17.3665C27.8358 16.8078 27.9778 16.1402 27.9778 15.3636C27.9778 14.5871 27.8358 13.9207 27.5517 13.3643C27.2676 12.8056 26.8781 12.3771 26.3833 12.0788C25.8909 11.7782 25.331 11.6278 24.7037 11.6278C24.0739 11.6278 23.5117 11.7782 23.0169 12.0788C22.5244 12.3771 22.1362 12.8056 21.8521 13.3643C21.568 13.9207 21.426 14.5871 21.426 15.3636C21.426 16.1378 21.568 16.8042 21.8521 17.3629C22.1362 17.9216 22.5244 18.3513 23.0169 18.652C23.5117 18.9503 24.0739 19.0994 24.7037 19.0994C25.331 19.0994 25.8909 18.9503 26.3833 18.652C26.8781 18.3513 27.2676 17.9228 27.5517 17.3665ZM26.6035 13.8686C26.7953 14.2734 26.8912 14.7718 26.8912 15.3636C26.8912 15.9555 26.7953 16.455 26.6035 16.8622C26.4141 17.267 26.1537 17.5748 25.8223 17.7855C25.4932 17.9938 25.1203 18.098 24.7037 18.098C24.2846 18.098 23.9106 17.9938 23.5815 17.7855C23.2524 17.5748 22.992 17.267 22.8002 16.8622C22.6109 16.455 22.5162 15.9555 22.5162 15.3636C22.5162 14.7718 22.6109 14.2734 22.8002 13.8686C22.992 13.4614 23.2524 13.1536 23.5815 12.9453C23.9106 12.7346 24.2846 12.6293 24.7037 12.6293C25.1203 12.6293 25.4932 12.7346 25.8223 12.9453C26.1537 13.1536 26.4141 13.4614 26.6035 13.8686ZM29.3191 11.7273H28.1649L30.182 19H31.2899L32.8205 13.5526H32.8773L34.4078 19H35.5123L37.5328 11.7273H36.3752L34.9618 17.3629H34.8944L33.4206 11.7273H32.2772L30.8034 17.3594H30.736L29.3191 11.7273Z" fill="#FFD7D7"/>
<defs>
<filter id="filter0_d_2972_21935" x="0" y="0" width="54" height="30" filterUnits="userSpaceOnUse" color-interpolation-filters="sRGB">
<feFlood flood-opacity="0" result="BackgroundImageFix"/>
<feColorMatrix in="SourceAlpha" type="matrix" values="0 0 0 0 0 0 0 0 0 0 0 0 0 0 0 0 0 0 127 0" result="hardAlpha"/>
<feOffset/>
<feGaussianBlur stdDeviation="2"/>
<feComposite in2="hardAlpha" operator="out"/>
<feColorMatrix type="matrix" values="0 0 0 0 1 0 0 0 0 1 0 0 0 0 1 0 0 0 1 0"/>
<feBlend mode="normal" in2="BackgroundImageFix" result="effect1_dropShadow_2972_21935"/>
<feBlend mode="normal" in="SourceGraphic" in2="effect1_dropShadow_2972_21935" result="shape"/>
</filter>
</defs>
</svg>
