<svg width="32" height="32" viewBox="0 0 32 32" fill="none" xmlns="http://www.w3.org/2000/svg">
<path d="M16 32C24.8366 32 32 24.8366 32 16C32 7.16344 24.8366 0 16 0C7.16344 0 0 7.16344 0 16C0 24.8366 7.16344 32 16 32Z" fill="#785FBB"/>
<path d="M24.987 15.3977H6.97266V24.8593H24.987V15.3977Z" fill="#E7DAEC"/>
<path d="M15.9778 6.74072L10.2656 10.7085H21.6901L15.9778 6.74072Z" fill="#E7DAEC"/>
<path d="M21.6901 10.7085H10.2656V15.977H21.6901V10.7085Z" fill="#E7DAEC"/>
<path d="M16 4.00977L15.9782 8.0375" stroke="#E7DAEC" stroke-width="0.704865" stroke-miterlimit="10"/>
<path d="M15.9879 11.9913C16.9649 11.9913 17.757 11.1992 17.757 10.2221C17.757 9.24507 16.9649 8.453 15.9879 8.453C15.0108 8.453 14.2188 9.24507 14.2188 10.2221C14.2188 11.1992 15.0108 11.9913 15.9879 11.9913Z" fill="#785FBB"/>
<path d="M17.5374 20.3517H14.4297V24.4112H17.5374V20.3517Z" fill="#785FBB"/>
<path d="M13.5858 13.7181H11.75V15.5539H13.5858V13.7181Z" fill="#785FBB"/>
<path d="M16.9061 13.7181H15.0703V15.5539H16.9061V13.7181Z" fill="#785FBB"/>
<path d="M20.3358 13.7181H18.5V15.5539H20.3358V13.7181Z" fill="#785FBB"/>
<path d="M13.5858 17.1525H11.75V18.9882H13.5858V17.1525Z" fill="#785FBB"/>
<path d="M16.9061 17.1525H15.0703V18.9882H16.9061V17.1525Z" fill="#785FBB"/>
<path d="M20.3358 17.1525H18.5V18.9882H20.3358V17.1525Z" fill="#785FBB"/>
<path d="M23.4647 17.1525H21.6289V18.9882H23.4647V17.1525Z" fill="#785FBB"/>
<path d="M20.3358 20.3607H18.5V22.1965H20.3358V20.3607Z" fill="#785FBB"/>
<path d="M23.4647 20.3607H21.6289V22.1965H23.4647V20.3607Z" fill="#785FBB"/>
<path d="M10.2772 17.1525H8.44141V18.9882H10.2772V17.1525Z" fill="#785FBB"/>
<path d="M10.2772 20.3607H8.44141V22.1965H10.2772V20.3607Z" fill="#785FBB"/>
<path d="M13.5858 20.3607H11.75V22.1965H13.5858V20.3607Z" fill="#785FBB"/>
<path d="M17.0754 4.44241C16.6433 4.40255 16.4064 4.24486 16.3125 4.13386V6.07366C16.5846 6.34577 16.9327 6.37229 17.3053 6.29598C17.8235 6.18984 18.3059 5.87554 18.833 5.92003C19.0848 5.94129 19.3109 6.00089 19.3985 6.05094V3.92804C19.1768 3.86284 18.934 3.89225 18.707 3.96442C18.1603 4.13822 17.6466 4.49511 17.0754 4.44241Z" fill="#E7DAEC"/>
</svg>
