<svg width="21" height="20" viewBox="0 0 21 20" fill="none" xmlns="http://www.w3.org/2000/svg">
<path fill-rule="evenodd" clip-rule="evenodd" d="M1.5 3H19.5V17H17.5061V15.352C17.5061 13.7467 16.2047 12.4453 14.5994 12.4453C13.8639 12.4453 13.1922 12.7185 12.6802 13.1689C13.2856 13.7016 13.6677 14.4822 13.6677 15.352V17H13.4282V15.352C13.4282 13.7467 12.1268 12.4453 10.5215 12.4453C8.9162 12.4453 7.61482 13.7467 7.61482 15.352V17H7.3384V15.352C7.3384 14.4822 7.72045 13.7016 8.3259 13.1689C7.81392 12.7185 7.14221 12.4453 6.4067 12.4453C4.80137 12.4453 3.5 13.7467 3.5 15.352V17H1.5V3ZM8.13356 10.4656C8.13356 11.4002 7.33322 12.1578 6.34594 12.1578C5.35867 12.1578 4.55832 11.4002 4.55832 10.4656C4.55832 9.53106 5.35867 8.77344 6.34594 8.77344C7.33322 8.77344 8.13356 9.53106 8.13356 10.4656ZM14.6413 12.1578C13.654 12.1578 12.8537 11.4002 12.8537 10.4656C12.8537 9.53106 13.654 8.77344 14.6413 8.77344C15.6286 8.77344 16.4289 9.53106 16.4289 10.4656C16.4289 11.4002 15.6286 12.1578 14.6413 12.1578ZM12.2721 10.4656C12.2721 11.4002 11.4717 12.1578 10.4845 12.1578C9.49719 12.1578 8.69684 11.4002 8.69684 10.4656C8.69684 9.53106 9.49719 8.77344 10.4845 8.77344C11.4717 8.77344 12.2721 9.53106 12.2721 10.4656Z" fill="#785FBB"/>
<rect x="7.5" y="2" width="6" height="1" fill="#785FBB"/>
<rect x="0.5" y="16" width="1" height="1" fill="#785FBB"/>
<rect x="19.5" y="16" width="1" height="1" fill="#785FBB"/>
</svg>
