<svg width="20" height="21" viewBox="0 0 20 21" fill="none" xmlns="http://www.w3.org/2000/svg">
<path fill-rule="evenodd" clip-rule="evenodd" d="M10.9767 1.5L8.96894 1.50785L8.9728 2.49337H1.99219V12.4614H17.9848V2.49337H10.9806L10.9767 1.5ZM8.38886 10.6342H6.94922L8.81913 5.10729H10.6025L12.4724 10.6342H11.0327L10.6674 9.47378H8.75345L8.38886 10.6342ZM9.73109 6.49982L10.3479 8.45907H9.07224L9.68779 6.49982H9.73109ZM11.7922 5.67872V6.30389H12.2761V5.67872H12.903V5.19607H12.2761V4.5697H11.7922V5.19607H11.1641V5.67872H11.7922Z" fill="#785FBB"/>
<path fill-rule="evenodd" clip-rule="evenodd" d="M1 12.75L18.9957 12.7532L19 13.8428L10.6305 13.8413V18.0012H11.5522V18.4996H8.43359V18.0012H9.37109V13.8411L1.00426 13.8396L1 12.75Z" fill="#785FBB"/>
</svg>
