<svg width="20" height="21" viewBox="0 0 20 21" fill="none" xmlns="http://www.w3.org/2000/svg">
<path d="M18.125 4.40833V7.64167C18.1263 7.90787 18.0747 8.17167 17.9731 8.41774C17.8715 8.66381 17.722 8.88722 17.5334 9.075C17.151 9.45153 16.6367 9.66383 16.1 9.66667H3.90002C3.63378 9.66777 3.36996 9.61614 3.12378 9.51477C2.8776 9.41339 2.65393 9.26427 2.46567 9.07602C2.27741 8.88776 2.12829 8.66409 2.02692 8.4179C1.92554 8.17172 1.87391 7.9079 1.87502 7.64167V4.40833C1.87501 3.8705 2.08809 3.35457 2.46762 2.97349C2.84714 2.5924 3.36219 2.3772 3.90002 2.375H16.1C16.6384 2.37736 17.1538 2.59313 17.5334 2.975C17.7221 3.16272 17.8716 3.38613 17.9732 3.63221C18.0748 3.87829 18.1264 4.14212 18.125 4.40833ZM9.16668 13.3583V16.6C9.16779 16.8662 9.11616 17.1301 9.01479 17.3762C8.91341 17.6224 8.76429 17.8461 8.57603 18.0343C8.38777 18.2226 8.1641 18.3717 7.91792 18.4731C7.67174 18.5745 7.40792 18.6261 7.14168 18.625H3.90002C3.63378 18.6261 3.36996 18.5745 3.12378 18.4731C2.8776 18.3717 2.65393 18.2226 2.46567 18.0343C2.27741 17.8461 2.12829 17.6224 2.02692 17.3762C1.92554 17.1301 1.87391 16.8662 1.87502 16.6V13.3667C1.87501 12.8288 2.08809 12.3129 2.46762 11.9318C2.84714 11.5507 3.36219 11.3355 3.90002 11.3333H7.14168C7.407 11.3347 7.66944 11.3884 7.91397 11.4913C8.1585 11.5943 8.38031 11.7445 8.56668 11.9333C8.94501 12.3118 9.16035 12.8232 9.16668 13.3583ZM18.125 13.3667V16.6C18.1263 16.8662 18.0747 17.13 17.9731 17.3761C17.8715 17.6221 17.722 17.8456 17.5334 18.0333C17.151 18.4099 16.6367 18.6222 16.1 18.625H12.8584C12.3214 18.6239 11.8064 18.4114 11.425 18.0333C11.2363 17.8456 11.0868 17.6222 10.9852 17.3761C10.8836 17.13 10.832 16.8662 10.8334 16.6V13.3667C10.8377 12.8302 11.0521 12.3167 11.4307 11.9366C11.8093 11.5564 12.3219 11.3399 12.8584 11.3333H16.1C16.6384 11.3357 17.1538 11.5515 17.5334 11.9333C17.7222 12.121 17.8717 12.3444 17.9733 12.5905C18.0749 12.8366 18.1265 13.1004 18.125 13.3667Z" fill="#785FBB"/>
</svg>
