<svg width="20" height="21" viewBox="0 0 20 21" fill="none" xmlns="http://www.w3.org/2000/svg">
<path fill-rule="evenodd" clip-rule="evenodd" d="M16.5988 4.6034H16.0334V17.1505H5.43724C5.23934 17.1505 5.05281 17.085 4.89793 16.9607C4.6867 16.7916 4.56568 16.5379 4.56568 16.2651V16.2332C4.56568 15.9456 4.68143 15.6797 4.87461 15.5096C5.0567 15.388 5.27459 15.3172 5.50913 15.3172H15.5543V2.5H5.6704C4.74804 2.5 4 3.25693 4 4.19066V15.9947C4 16.0372 4.00167 16.0791 4.00472 16.1208C4.00194 16.158 4 16.1954 4 16.2332V16.2651C4 16.7106 4.19846 17.1247 4.54403 17.4017C4.79662 17.6044 5.1136 17.7159 5.43696 17.7159H16.0975H16.5985V4.60368L16.5988 4.6034ZM10.9178 10.9386V10.2852H13.6504V10.414L11.924 12.9704H13.6743V13.6238H10.8748L10.7651 13.4284L12.4344 10.9389H10.9178V10.9386ZM7.02742 4.43714H7.59949L9.1447 7.77544H8.40082L8.11465 7.13148H6.51698L6.23552 7.77544H5.49165L7.02742 4.43714ZM15.5543 15.9664H5.77559V16.5318H15.5543V15.9664ZM6.77896 6.53553L7.31327 5.31951L7.85203 6.53553H6.77896Z" fill="#785FBB"/>
</svg>
