<svg width="21" height="21" viewBox="0 0 21 21" fill="none" xmlns="http://www.w3.org/2000/svg">
<path d="M3.43766 20.4673H15.9377C16.7124 20.4651 17.4546 20.1556 18.0015 19.6067C18.5483 19.0579 18.855 18.3145 18.8543 17.5398V11.259C18.8543 11.0379 18.7665 10.826 18.6103 10.6697C18.454 10.5134 18.242 10.4256 18.021 10.4256C17.8 10.4256 17.588 10.5134 17.4317 10.6697C17.2755 10.826 17.1877 11.0379 17.1877 11.259V17.5398C17.1888 17.8726 17.0578 18.1923 16.8234 18.4287C16.5891 18.6651 16.2705 18.7989 15.9377 18.8006H3.43766C3.10481 18.7989 2.78625 18.6651 2.5519 18.4287C2.31755 18.1923 2.18656 17.8726 2.18766 17.5398V5.06145C2.18656 4.72859 2.31755 4.40889 2.5519 4.17251C2.78625 3.93613 3.10481 3.80238 3.43766 3.80062H9.68766C9.90868 3.80062 10.1206 3.71282 10.2769 3.55654C10.4332 3.40026 10.521 3.1883 10.521 2.96728C10.521 2.74627 10.4332 2.53431 10.2769 2.37803C10.1206 2.22175 9.90868 2.13395 9.68766 2.13395H3.43766C2.66292 2.13616 1.92069 2.44564 1.37388 2.99449C0.827064 3.54333 0.520332 4.2867 0.520997 5.06145V17.5398C0.520332 18.3145 0.827064 19.0579 1.37388 19.6067C1.92069 20.1556 2.66292 20.4651 3.43766 20.4673Z" fill="#785FBB"/>
<path d="M8.40016 9.25395L7.74266 12.2656C7.7129 12.4022 7.71799 12.5441 7.75745 12.6782C7.79692 12.8124 7.86949 12.9344 7.9685 13.0331C8.06886 13.1294 8.19095 13.2 8.32441 13.239C8.45787 13.278 8.59877 13.2843 8.73516 13.2573L11.7402 12.5981C11.8962 12.5639 12.0391 12.4855 12.1518 12.3723L19.7468 4.77728C19.979 4.54513 20.1632 4.26951 20.2889 3.96617C20.4145 3.66283 20.4792 3.33771 20.4792 3.00937C20.4792 2.68103 20.4145 2.3559 20.2889 2.05256C20.1632 1.74922 19.979 1.4736 19.7468 1.24145C19.2708 0.786564 18.6377 0.532715 17.9793 0.532715C17.3209 0.532715 16.6878 0.786564 16.2118 1.24145L8.6285 8.84395C8.51468 8.95592 8.43543 9.09823 8.40016 9.25395ZM17.3902 2.42062C17.5487 2.26873 17.7598 2.18394 17.9793 2.18394C18.1989 2.18394 18.41 2.26873 18.5685 2.42062C18.7227 2.57781 18.809 2.7892 18.809 3.00937C18.809 3.22954 18.7227 3.44093 18.5685 3.59812L17.9793 4.18728L16.801 3.00895L17.3902 2.42062ZM9.9735 9.84895L15.6185 4.18978L16.7852 5.36228L11.1377 11.0231L9.64183 11.3514L9.9735 9.84895Z" fill="#785FBB"/>
</svg>
