<svg width="23" height="24" viewBox="0 0 23 24" fill="none" xmlns="http://www.w3.org/2000/svg">
<path d="M11.5 0.141113C5.14625 0.141113 0 5.28736 0 11.6411C0 17.9949 5.14625 23.1411 11.5 23.1411C17.8538 23.1411 23 17.9949 23 11.6411C23 5.28736 17.8538 0.141113 11.5 0.141113ZM15.7229 6.77822C16.1134 6.3877 16.7466 6.3877 17.1371 6.77822L17.7929 7.43401C18.1834 7.82453 18.1834 8.4577 17.7929 8.84822L9.94961 16.6915C9.55908 17.082 8.92592 17.082 8.5354 16.6915L5.00461 13.1607C4.61408 12.7702 4.61408 12.137 5.00461 11.7465L5.6604 11.0907C6.05092 10.7002 6.68408 10.7002 7.07461 11.0907L8.5354 12.5515C8.92592 12.942 9.55908 12.942 9.94961 12.5515L15.7229 6.77822Z" fill="#CACACA"/>
</svg>
