<svg width="23" height="24" viewBox="0 0 23 24" fill="none" xmlns="http://www.w3.org/2000/svg">
<path fill-rule="evenodd" clip-rule="evenodd" d="M11.5 23.1411C17.8513 23.1411 23 17.9924 23 11.6411C23 5.28984 17.8513 0.141113 11.5 0.141113C5.14873 0.141113 0 5.28984 0 11.6411C0 17.9924 5.14873 23.1411 11.5 23.1411ZM5.25357 14.5985C6.70529 14.5985 7.88214 13.4216 7.88214 11.9699C7.88214 10.5182 6.70529 9.34131 5.25357 9.34131C3.80185 9.34131 2.625 10.5182 2.625 11.9699C2.625 13.4216 3.80185 14.5985 5.25357 14.5985ZM14.4525 11.9699C14.4525 13.4216 13.2756 14.5985 11.8239 14.5985C10.3722 14.5985 9.19531 13.4216 9.19531 11.9699C9.19531 10.5182 10.3722 9.34131 11.8239 9.34131C13.2756 9.34131 14.4525 10.5182 14.4525 11.9699ZM18.3942 14.5985C19.8459 14.5985 21.0228 13.4216 21.0228 11.9699C21.0228 10.5182 19.8459 9.34131 18.3942 9.34131C16.9425 9.34131 15.7656 10.5182 15.7656 11.9699C15.7656 13.4216 16.9425 14.5985 18.3942 14.5985Z" fill="#CACACA"/>
</svg>
