<svg width="177" height="187" viewBox="0 0 177 187" fill="none" xmlns="http://www.w3.org/2000/svg">
<path d="M134.206 20.3497L135.307 24.63C141.641 49.2675 139.075 75.3502 128.061 98.281L115.31 124.829L91.0365 113.171L64.4672 100.409L77.2186 73.8609C88.2325 50.9301 106.987 32.623 130.178 22.1663L134.206 20.3497Z" fill="#CCC2E8"/>
<circle cx="111.142" cy="68.37" r="12.1856" transform="rotate(25.6554 111.142 68.37)" fill="white"/>
<path d="M79.2402 69.655L64.4677 100.411L47.5206 92.2712L79.2402 69.655Z" fill="#E6DDFF"/>
<path d="M130.081 94.0742L115.309 124.83L132.256 132.97L130.081 94.0742Z" fill="#E6DDFF"/>
<path d="M80.3547 101.09L105.462 113.149L101.918 125.351L73.0451 111.483L80.3547 101.09Z" fill="#CCC2E8"/>
<path d="M76.0859 117.444L67.4853 135.35" stroke="#CCC2E8" stroke-width="2"/>
<path d="M82.3369 125.552L73.7363 143.458" stroke="#CCC2E8" stroke-width="2"/>
<path d="M87.7041 124.941L80.7239 139.474" stroke="#CCC2E8" stroke-width="2"/>
<path d="M93.5703 123.284L86.5901 137.817" stroke="#CCC2E8" stroke-width="2"/>
<path d="M79.709 120.46L74.2245 131.878" stroke="#CCC2E8" stroke-width="2"/>
<circle cx="20.448" cy="175.028" r="11.6404" fill="#E0F0FF"/>
<circle cx="138.238" cy="173.432" r="13.4312" fill="#E0F0FF"/>
<ellipse cx="106.408" cy="166.969" rx="21.7884" ry="19.6991" fill="#E0F0FF"/>
<circle cx="45.8187" cy="164.581" r="20.893" fill="#E0F0FF"/>
<circle cx="75.665" cy="168.76" r="15.5205" fill="#E0F0FF"/>
<path fill-rule="evenodd" clip-rule="evenodd" d="M150.813 176.001H9.08246C8.91883 181.393 5.08832 185.862 0 187.001H159.895C154.807 185.862 150.976 181.393 150.813 176.001Z" fill="#E0F0FF"/>
<path d="M37.5913 102.134L40.074 104.716L39.0796 108.157L35.6026 109.016L33.1199 106.435L34.1142 102.994L37.5913 102.134Z" fill="#D4C5FA"/>
<path d="M126.953 140.206L128.862 142.192L128.098 144.839L125.423 145.5L123.513 143.514L124.278 140.867L126.953 140.206Z" fill="#D4C5FA"/>
<path d="M49.4155 128.996L51.3253 130.982L50.5604 133.629L47.8857 134.29L45.9758 132.304L46.7407 129.657L49.4155 128.996Z" fill="#D4C5FA"/>
<path d="M141.107 114.604L142.617 116.174L142.012 118.266L139.898 118.788L138.389 117.219L138.994 115.127L141.107 114.604Z" fill="#D4C5FA"/>
</svg>
