<svg width="19" height="21" viewBox="0 0 19 21" fill="none" xmlns="http://www.w3.org/2000/svg">
<path fill-rule="evenodd" clip-rule="evenodd" d="M13.6321 3.19328H17.9653C18.2606 3.19328 18.5 3.43265 18.5 3.72793V4.61902C18.5 4.9143 18.2606 5.15367 17.9653 5.15367H16.896V18.8764C16.896 19.9591 16.0183 20.8368 14.9356 20.8368H4.06436C2.98166 20.8368 2.10396 19.9591 2.10396 18.8764V5.15367H1.03465C0.739372 5.15367 0.5 4.9143 0.5 4.61902V3.72793C0.5 3.43265 0.739373 3.19328 1.03465 3.19328H5.18972C5.22151 3.09917 5.25648 3.00602 5.2946 2.914C5.5185 2.37344 5.84669 1.88227 6.26042 1.46854C6.67414 1.05482 7.16531 0.726632 7.70587 0.502725C8.24643 0.278818 8.82579 0.163574 9.41089 0.163574C9.99599 0.163574 10.5754 0.278818 11.1159 0.502725C11.6565 0.726632 12.1476 1.05482 12.5614 1.46854C12.9751 1.88227 13.3033 2.37344 13.5272 2.91399C13.5653 3.00602 13.6003 3.09917 13.6321 3.19328ZM6.67893 3.19328C6.82363 2.916 7.00996 2.66189 7.23186 2.43999C7.51801 2.15383 7.85773 1.92684 8.23161 1.77198C8.60549 1.61711 9.00621 1.5374 9.41089 1.5374C9.81558 1.5374 10.2163 1.61711 10.5902 1.77198C10.9641 1.92684 11.3038 2.15383 11.5899 2.43999C11.8118 2.66189 11.9981 2.916 12.1429 3.19328H6.67893ZM3.88614 18.8764V5.15367H15.1139V18.8764C15.1139 18.9749 15.0341 19.0547 14.9356 19.0547H4.06436C3.96593 19.0547 3.88614 18.9749 3.88614 18.8764Z" fill="#785FBB"/>
<path d="M6.38119 8.89625C6.38119 8.60097 6.62056 8.36159 6.91584 8.36159H7.62871C7.92399 8.36159 8.16337 8.60097 8.16337 8.89625V14.9557C8.16337 15.2509 7.92399 15.4903 7.62871 15.4903H6.91584C6.62056 15.4903 6.38119 15.2509 6.38119 14.9557V8.89625Z" fill="#785FBB"/>
<path d="M10.6584 8.89625C10.6584 8.60097 10.8978 8.36159 11.1931 8.36159H11.9059C12.2012 8.36159 12.4406 8.60097 12.4406 8.89625V14.9557C12.4406 15.2509 12.2012 15.4903 11.9059 15.4903H11.1931C10.8978 15.4903 10.6584 15.2509 10.6584 14.9557V8.89625Z" fill="#785FBB"/>
</svg>
