<svg width="26" height="28" viewBox="0 0 26 28" fill="none" xmlns="http://www.w3.org/2000/svg">
<path d="M13.4917 12.9666L18.5783 9.99574L13.4917 1.11426V12.9666Z" fill="white"/>
<path d="M19.0412 10.8037L13.8311 13.8472L24.2797 19.9505L19.0412 10.8037Z" fill="white"/>
<path d="M7.50232 10.1504L12.5607 13.105V1.31799L7.50232 10.1504Z" fill="white"/>
<path d="M14.1486 0.387451L19.3824 9.52588L24.6486 6.44995L14.1486 0.387451Z" fill="white"/>
<path d="M11.9847 13.8471L7.03936 10.9583L2.06714 19.6402L11.9847 13.8471Z" fill="white"/>
<path d="M19.8453 10.3343L25.2555 19.781V7.17407L19.8453 10.3343Z" fill="white"/>
<path d="M12.5606 14.5889L1.26111 21.1893L12.5606 27.7129V14.5889Z" fill="white"/>
<path d="M13.4917 14.7273V27.7129L24.6723 21.2579L13.4917 14.7273Z" fill="white"/>
<path d="M6.23518 10.4889L0.796753 7.3125V19.9843L6.23518 10.4889Z" fill="white"/>
<path d="M6.69819 9.68097L12.0783 0.286987L1.2843 6.51847L6.69819 9.68097Z" fill="white"/>
</svg>
