<svg width="17" height="20" viewBox="0 0 17 20" fill="none" xmlns="http://www.w3.org/2000/svg">
<path d="M4.89679 0.173477V8.70054H3.15914V2.28369L0.999512 3.14026V1.50178L4.49971 0L4.89679 0.173837V0.173477Z" fill="#856FC2"/>
<path d="M6.4172 17.9623V19.5759H0.198723L0 19.3029L3.20229 15.5794C3.9099 14.6857 4.30699 14.0899 4.30699 13.519C4.30699 12.8734 3.77321 12.3522 2.89212 12.3522C2.01103 12.3522 0.992895 12.8734 0.347676 13.4447V11.707C1.17936 11.0492 2.22166 10.739 3.19003 10.739C4.96483 10.739 6.14419 11.7939 6.14419 13.2957C6.14419 14.2017 5.72222 15.0334 4.80362 16.1381L3.2398 17.9627H6.4172V17.9623Z" fill="#856FC2"/>
<path d="M16.7882 12.2004C16.7882 14.5666 14.8987 16.0291 12.2039 16.0291C10.8399 16.0291 9.47621 15.6512 8.58899 15.0103V12.8247C9.60785 13.515 10.9715 13.9748 12.0726 13.9748C13.4528 13.9748 14.4551 13.2517 14.4551 12.1015C14.4551 10.9514 13.4362 10.2449 11.9081 10.2449C11.4645 10.2449 10.8893 10.2943 10.2484 10.4422L9.96887 9.88349L12.8444 6.46553H8.62145L9.08165 4.32935H16.5087L16.7716 4.69073L13.4525 8.58512C15.2763 8.88086 16.7882 10.2777 16.7882 12.2V12.2004Z" fill="#856FC2"/>
</svg>
