<svg width="17" height="19" viewBox="0 0 17 19" fill="none" xmlns="http://www.w3.org/2000/svg">
<path fill-rule="evenodd" clip-rule="evenodd" d="M5.16395 0.93605V8.81673H3.55795V2.88606L1.56195 3.67772V2.16339L4.79695 0.775391L5.16395 0.93605ZM6.56931 17.3774V18.8684H0.821973L0.638306 18.6161L3.59797 15.1747C4.25197 14.3487 4.61897 13.7981 4.61897 13.2704C4.61897 12.6737 4.12564 12.1921 3.31131 12.1921C2.49697 12.1921 1.55597 12.6737 0.959639 13.2017V11.5957C1.72831 10.9877 2.69164 10.7011 3.58664 10.7011C5.22697 10.7011 6.31697 11.6761 6.31697 13.0641C6.31697 13.9014 5.92697 14.6701 5.07797 15.6911L3.63264 17.3774H6.56931ZM11.9176 15.5904C14.4083 15.5904 16.1546 14.2387 16.1546 12.0517V12.0514C16.1546 10.2747 14.7573 8.98372 13.0716 8.71039L16.1393 5.11105L15.8963 4.77705H9.03196L8.60663 6.75139H12.5096L9.85196 9.91039L10.1103 10.4267C10.7026 10.2901 11.2343 10.2444 11.6443 10.2444C13.0566 10.2444 13.9983 10.8974 13.9983 11.9604C13.9983 13.0234 13.072 13.6917 11.7963 13.6917C10.7786 13.6917 9.5183 13.2667 8.57663 12.6287V14.6487C9.39663 15.2411 10.657 15.5904 11.9176 15.5904Z" fill="#A2A2A2"/>
</svg>
