<svg width="20" height="18" viewBox="0 0 20 18" fill="none" xmlns="http://www.w3.org/2000/svg">
<path d="M6.66667 16.3578C6.96528 16.3578 7.22569 16.3892 7.44792 16.4519C7.67014 16.5146 7.87847 16.6052 8.07292 16.7236C8.26736 16.8421 8.45139 16.9849 8.625 17.1521C8.79861 17.3194 8.98611 17.5005 9.1875 17.6956H0V1.64211H1.33333V16.3578H6.66667ZM6.66667 0.304321C7.13194 0.304321 7.59028 0.360063 8.04167 0.471545C8.49306 0.583028 8.92361 0.75722 9.33333 0.994121V15.992C8.95833 15.6785 8.54167 15.4381 8.08333 15.2709C7.625 15.1037 7.15278 15.02 6.66667 15.02H2.66667V0.304321H6.66667ZM20 1.64211V17.6956H10.8125C11.0069 17.5005 11.191 17.3194 11.3646 17.1521C11.5382 16.9849 11.7222 16.8456 11.9167 16.7341C12.1111 16.6226 12.3194 16.532 12.5417 16.4623C12.7639 16.3927 13.0278 16.3578 13.3333 16.3578H18.6667V1.64211H20ZM13.3333 15.02C12.8472 15.02 12.375 15.1037 11.9167 15.2709C11.4583 15.4381 11.0417 15.6785 10.6667 15.992V0.994121C11.0764 0.764188 11.5069 0.59348 11.9583 0.481997C12.4097 0.370514 12.8681 0.311289 13.3333 0.304321H17.3333V15.02H13.3333Z" fill="#989898"/>
</svg>
