<svg width="16" height="20" viewBox="0 0 16 20" fill="none" xmlns="http://www.w3.org/2000/svg">
<path fill-rule="evenodd" clip-rule="evenodd" d="M15.5651 3.31H14.8861V18.378H2.16106C1.92339 18.378 1.69939 18.2993 1.51339 18.15C1.25973 17.947 1.11439 17.6423 1.11439 17.3147V17.2763C1.11439 16.931 1.25339 16.6117 1.48539 16.4073C1.70406 16.2613 1.96573 16.1763 2.24739 16.1763H14.3107V0.783997H2.44106C1.33339 0.783997 0.435059 1.693 0.435059 2.81433V16.99C0.435059 17.041 0.437059 17.0913 0.440725 17.1413C0.437392 17.186 0.435059 17.231 0.435059 17.2763V17.3147C0.435059 17.8497 0.673392 18.347 1.08839 18.6797C1.39173 18.923 1.77239 19.057 2.16073 19.057H14.9631H15.5647V3.31033L15.5651 3.31ZM8.74273 10.918V10.1333H12.0244V10.288L9.95106 13.358H12.0531V14.1427H8.69106L8.55939 13.908L10.5641 10.9183H8.74273V10.918ZM4.07073 3.11033H4.75773L6.61339 7.11933H5.72006L5.37639 6.346H3.45773L3.11973 7.11933H2.22639L4.07073 3.11033ZM14.3107 16.956H2.56738V17.635H14.3107V16.956ZM3.77239 5.63033L4.41406 4.17L5.06106 5.63033H3.77239Z" fill="#856FC2"/>
</svg>
