<svg width="16" height="19" viewBox="0 0 16 19" fill="none" xmlns="http://www.w3.org/2000/svg">
<path fill-rule="evenodd" clip-rule="evenodd" d="M15.528 3.177H14.8489V18.245H2.12395C1.88628 18.245 1.66228 18.1663 1.47628 18.017C1.22262 17.814 1.07728 17.5093 1.07728 17.1817V17.1433C1.07728 16.798 1.21628 16.4787 1.44828 16.2743C1.66695 16.1283 1.92862 16.0433 2.21028 16.0433H14.2736V0.651001H2.40395C1.29628 0.651001 0.397949 1.56 0.397949 2.68134V16.857C0.397949 16.908 0.399949 16.9583 0.403615 17.0083C0.400282 17.053 0.397949 17.098 0.397949 17.1433V17.1817C0.397949 17.7167 0.636283 18.214 1.05128 18.5467C1.35462 18.79 1.73528 18.924 2.12362 18.924H14.926H15.5276V3.17734L15.528 3.177ZM8.70562 10.785V10.0003H11.9873V10.155L9.91395 13.225H12.0159V14.0097H8.65395L8.52228 13.775L10.5269 10.7853H8.70562V10.785ZM4.03362 2.97734H4.72062L6.57628 6.98633H5.68295L5.33928 6.213H3.42062L3.08262 6.98633H2.18928L4.03362 2.97734ZM14.2736 16.823H2.53027V17.502H14.2736V16.823ZM3.7356 5.49733L4.37694 4.03667L5.02427 5.49733H3.7356Z" fill="#A2A2A2"/>
</svg>
